<svg xmlns="http://www.w3.org/2000/svg" version="1.1" xmlns:xlink="http://www.w3.org/1999/xlink" xmlns:svgjs="http://svgjs.com/svgjs" width="365" height="600" preserveAspectRatio="none" viewBox="0 0 365 600"><g mask="url(&quot;#SvgjsMask1182&quot;)" fill="none"><rect width="365" height="600" x="0" y="0" fill="rgba(0, 0, 0, 1)"></rect><path d="M-44.79 429.61L-44.79 429.61" stroke="rgba(128, 10, 10, 1)" stroke-width="1.5"></path><path d="M-44.79 429.61L-32.12 496.2" stroke="rgba(128, 10, 10, 1)" stroke-width="1.5"></path><path d="M-44.79 429.61L34.26 394.36" stroke="rgba(128, 10, 10, 1)" stroke-width="1.5"></path><path d="M-32.12 496.2L-32.12 496.2" stroke="rgba(128, 10, 10, 1)" stroke-width="1.5"></path><path d="M-32.12 496.2L-46.66 554.18" stroke="rgba(128, 10, 10, 1)" stroke-width="1.5"></path><path d="M-32.12 496.2L28.41 494.21" stroke="rgba(128, 10, 10, 1)" stroke-width="1.5"></path><path d="M-46.66 554.18L-46.66 554.18" stroke="rgba(128, 10, 10, 1)" stroke-width="1.5"></path><path d="M-46.66 554.18L34.18 545.87" stroke="rgba(128, 10, 10, 1)" stroke-width="1.5"></path><path d="M-46.66 554.18L28.41 494.21" stroke="rgba(128, 10, 10, 1)" stroke-width="1.5"></path><path d="M-46.66 554.18L-48.2 655.42" stroke="rgba(128, 10, 10, 1)" stroke-width="1.5"></path><path d="M-46.66 554.18L29.11 625.46" stroke="rgba(128, 10, 10, 1)" stroke-width="1.5"></path><path d="M-46.66 554.18L-44.79 429.61" stroke="rgba(128, 10, 10, 1)" stroke-width="1.5"></path><path d="M-48.2 655.42L-48.2 655.42" stroke="rgba(128, 10, 10, 1)" stroke-width="1.5"></path><path d="M-48.2 655.42L29.11 625.46" stroke="rgba(128, 10, 10, 1)" stroke-width="1.5"></path><path d="M-48.2 655.42L34.18 545.87" stroke="rgba(128, 10, 10, 1)" stroke-width="1.5"></path><path d="M-48.2 655.42L101.45 619.03" stroke="rgba(128, 10, 10, 1)" stroke-width="1.5"></path><path d="M-48.2 655.42L-32.12 496.2" stroke="rgba(128, 10, 10, 1)" stroke-width="1.5"></path><path d="M-48.2 655.42L28.41 494.21" stroke="rgba(128, 10, 10, 1)" stroke-width="1.5"></path><path d="M34.26 394.36L34.26 394.36" stroke="rgba(128, 10, 10, 1)" stroke-width="1.5"></path><path d="M34.26 394.36L127.39 397.53" stroke="rgba(128, 10, 10, 1)" stroke-width="1.5"></path><path d="M34.26 394.36L28.41 494.21" stroke="rgba(128, 10, 10, 1)" stroke-width="1.5"></path><path d="M28.41 494.21L28.41 494.21" stroke="rgba(128, 10, 10, 1)" stroke-width="1.5"></path><path d="M28.41 494.21L34.18 545.87" stroke="rgba(128, 10, 10, 1)" stroke-width="1.5"></path><path d="M34.18 545.87L34.18 545.87" stroke="rgba(128, 10, 10, 1)" stroke-width="1.5"></path><path d="M34.18 545.87L29.11 625.46" stroke="rgba(128, 10, 10, 1)" stroke-width="1.5"></path><path d="M34.18 545.87L-32.12 496.2" stroke="rgba(128, 10, 10, 1)" stroke-width="1.5"></path><path d="M34.18 545.87L126.58 557.7" stroke="rgba(128, 10, 10, 1)" stroke-width="1.5"></path><path d="M29.11 625.46L29.11 625.46" stroke="rgba(128, 10, 10, 1)" stroke-width="1.5"></path><path d="M29.11 625.46L101.45 619.03" stroke="rgba(128, 10, 10, 1)" stroke-width="1.5"></path><path d="M29.11 625.46L126.58 557.7" stroke="rgba(128, 10, 10, 1)" stroke-width="1.5"></path><path d="M114.72 330.63L114.72 330.63" stroke="rgba(128, 10, 10, 1)" stroke-width="1.5"></path><path d="M114.72 330.63L127.39 397.53" stroke="rgba(128, 10, 10, 1)" stroke-width="1.5"></path><path d="M127.39 397.53L127.39 397.53" stroke="rgba(128, 10, 10, 1)" stroke-width="1.5"></path><path d="M127.39 397.53L185.81 415.13" stroke="rgba(128, 10, 10, 1)" stroke-width="1.5"></path><path d="M127.39 397.53L102.42 478.54" stroke="rgba(128, 10, 10, 1)" stroke-width="1.5"></path><path d="M127.39 397.53L187.32 333.97" stroke="rgba(128, 10, 10, 1)" stroke-width="1.5"></path><path d="M102.42 478.54L102.42 478.54" stroke="rgba(128, 10, 10, 1)" stroke-width="1.5"></path><path d="M102.42 478.54L28.41 494.21" stroke="rgba(128, 10, 10, 1)" stroke-width="1.5"></path><path d="M102.42 478.54L126.58 557.7" stroke="rgba(128, 10, 10, 1)" stroke-width="1.5"></path><path d="M126.58 557.7L126.58 557.7" stroke="rgba(128, 10, 10, 1)" stroke-width="1.5"></path><path d="M126.58 557.7L177.02 580.01" stroke="rgba(128, 10, 10, 1)" stroke-width="1.5"></path><path d="M126.58 557.7L101.45 619.03" stroke="rgba(128, 10, 10, 1)" stroke-width="1.5"></path><path d="M126.58 557.7L187.44 501.7" stroke="rgba(128, 10, 10, 1)" stroke-width="1.5"></path><path d="M101.45 619.03L101.45 619.03" stroke="rgba(128, 10, 10, 1)" stroke-width="1.5"></path><path d="M101.45 619.03L175.99 649.52" stroke="rgba(128, 10, 10, 1)" stroke-width="1.5"></path><path d="M101.45 619.03L177.02 580.01" stroke="rgba(128, 10, 10, 1)" stroke-width="1.5"></path><path d="M205.86 182.61L205.86 182.61" stroke="rgba(128, 10, 10, 1)" stroke-width="1.5"></path><path d="M205.86 182.61L176.22 254.74" stroke="rgba(128, 10, 10, 1)" stroke-width="1.5"></path><path d="M205.86 182.61L270.91 99.06" stroke="rgba(128, 10, 10, 1)" stroke-width="1.5"></path><path d="M205.86 182.61L325.96 179.66" stroke="rgba(128, 10, 10, 1)" stroke-width="1.5"></path><path d="M205.86 182.61L324.86 268.49" stroke="rgba(128, 10, 10, 1)" stroke-width="1.5"></path><path d="M205.86 182.61L331.88 105.51" stroke="rgba(128, 10, 10, 1)" stroke-width="1.5"></path><path d="M176.22 254.74L176.22 254.74" stroke="rgba(128, 10, 10, 1)" stroke-width="1.5"></path><path d="M176.22 254.74L187.32 333.97" stroke="rgba(128, 10, 10, 1)" stroke-width="1.5"></path><path d="M176.22 254.74L114.72 330.63" stroke="rgba(128, 10, 10, 1)" stroke-width="1.5"></path><path d="M176.22 254.74L276.9 330.43" stroke="rgba(128, 10, 10, 1)" stroke-width="1.5"></path><path d="M176.22 254.74L324.86 268.49" stroke="rgba(128, 10, 10, 1)" stroke-width="1.5"></path><path d="M187.32 333.97L187.32 333.97" stroke="rgba(128, 10, 10, 1)" stroke-width="1.5"></path><path d="M187.32 333.97L114.72 330.63" stroke="rgba(128, 10, 10, 1)" stroke-width="1.5"></path><path d="M187.32 333.97L185.81 415.13" stroke="rgba(128, 10, 10, 1)" stroke-width="1.5"></path><path d="M187.32 333.97L276.9 330.43" stroke="rgba(128, 10, 10, 1)" stroke-width="1.5"></path><path d="M185.81 415.13L185.81 415.13" stroke="rgba(128, 10, 10, 1)" stroke-width="1.5"></path><path d="M187.44 501.7L187.44 501.7" stroke="rgba(128, 10, 10, 1)" stroke-width="1.5"></path><path d="M187.44 501.7L261.22 475.12" stroke="rgba(128, 10, 10, 1)" stroke-width="1.5"></path><path d="M187.44 501.7L177.02 580.01" stroke="rgba(128, 10, 10, 1)" stroke-width="1.5"></path><path d="M187.44 501.7L185.81 415.13" stroke="rgba(128, 10, 10, 1)" stroke-width="1.5"></path><path d="M177.02 580.01L177.02 580.01" stroke="rgba(128, 10, 10, 1)" stroke-width="1.5"></path><path d="M177.02 580.01L175.99 649.52" stroke="rgba(128, 10, 10, 1)" stroke-width="1.5"></path><path d="M175.99 649.52L175.99 649.52" stroke="rgba(128, 10, 10, 1)" stroke-width="1.5"></path><path d="M175.99 649.52L270.22 654.92" stroke="rgba(128, 10, 10, 1)" stroke-width="1.5"></path><path d="M244.21 -44.8L244.21 -44.8" stroke="rgba(128, 10, 10, 1)" stroke-width="1.5"></path><path d="M244.21 -44.8L278.48 49.21" stroke="rgba(128, 10, 10, 1)" stroke-width="1.5"></path><path d="M244.21 -44.8L353.09 -23.15" stroke="rgba(128, 10, 10, 1)" stroke-width="1.5"></path><path d="M244.21 -44.8L336.29 45.87" stroke="rgba(128, 10, 10, 1)" stroke-width="1.5"></path><path d="M244.21 -44.8L270.91 99.06" stroke="rgba(128, 10, 10, 1)" stroke-width="1.5"></path><path d="M244.21 -44.8L331.88 105.51" stroke="rgba(128, 10, 10, 1)" stroke-width="1.5"></path><path d="M278.48 49.21L278.48 49.21" stroke="rgba(128, 10, 10, 1)" stroke-width="1.5"></path><path d="M278.48 49.21L270.91 99.06" stroke="rgba(128, 10, 10, 1)" stroke-width="1.5"></path><path d="M278.48 49.21L336.29 45.87" stroke="rgba(128, 10, 10, 1)" stroke-width="1.5"></path><path d="M278.48 49.21L331.88 105.51" stroke="rgba(128, 10, 10, 1)" stroke-width="1.5"></path><path d="M270.91 99.06L270.91 99.06" stroke="rgba(128, 10, 10, 1)" stroke-width="1.5"></path><path d="M270.91 99.06L331.88 105.51" stroke="rgba(128, 10, 10, 1)" stroke-width="1.5"></path><path d="M270.91 99.06L336.29 45.87" stroke="rgba(128, 10, 10, 1)" stroke-width="1.5"></path><path d="M270.91 99.06L325.96 179.66" stroke="rgba(128, 10, 10, 1)" stroke-width="1.5"></path><path d="M270.91 99.06L403.17 45.64" stroke="rgba(128, 10, 10, 1)" stroke-width="1.5"></path><path d="M276.9 330.43L276.9 330.43" stroke="rgba(128, 10, 10, 1)" stroke-width="1.5"></path><path d="M276.9 330.43L321.42 322.76" stroke="rgba(128, 10, 10, 1)" stroke-width="1.5"></path><path d="M276.9 330.43L324.86 268.49" stroke="rgba(128, 10, 10, 1)" stroke-width="1.5"></path><path d="M276.9 330.43L275.54 425.36" stroke="rgba(128, 10, 10, 1)" stroke-width="1.5"></path><path d="M275.54 425.36L275.54 425.36" stroke="rgba(128, 10, 10, 1)" stroke-width="1.5"></path><path d="M275.54 425.36L261.22 475.12" stroke="rgba(128, 10, 10, 1)" stroke-width="1.5"></path><path d="M275.54 425.36L346.48 406.44" stroke="rgba(128, 10, 10, 1)" stroke-width="1.5"></path><path d="M275.54 425.36L325.95 485.42" stroke="rgba(128, 10, 10, 1)" stroke-width="1.5"></path><path d="M275.54 425.36L185.81 415.13" stroke="rgba(128, 10, 10, 1)" stroke-width="1.5"></path><path d="M275.54 425.36L321.42 322.76" stroke="rgba(128, 10, 10, 1)" stroke-width="1.5"></path><path d="M261.22 475.12L261.22 475.12" stroke="rgba(128, 10, 10, 1)" stroke-width="1.5"></path><path d="M261.22 475.12L325.95 485.42" stroke="rgba(128, 10, 10, 1)" stroke-width="1.5"></path><path d="M261.22 475.12L277.02 566.16" stroke="rgba(128, 10, 10, 1)" stroke-width="1.5"></path><path d="M277.02 566.16L277.02 566.16" stroke="rgba(128, 10, 10, 1)" stroke-width="1.5"></path><path d="M277.02 566.16L352.32 575.15" stroke="rgba(128, 10, 10, 1)" stroke-width="1.5"></path><path d="M277.02 566.16L335.76 631.9" stroke="rgba(128, 10, 10, 1)" stroke-width="1.5"></path><path d="M270.22 654.92L270.22 654.92" stroke="rgba(128, 10, 10, 1)" stroke-width="1.5"></path><path d="M270.22 654.92L335.76 631.9" stroke="rgba(128, 10, 10, 1)" stroke-width="1.5"></path><path d="M270.22 654.92L277.02 566.16" stroke="rgba(128, 10, 10, 1)" stroke-width="1.5"></path><path d="M270.22 654.92L352.32 575.15" stroke="rgba(128, 10, 10, 1)" stroke-width="1.5"></path><path d="M270.22 654.92L177.02 580.01" stroke="rgba(128, 10, 10, 1)" stroke-width="1.5"></path><path d="M270.22 654.92L420.96 630.09" stroke="rgba(128, 10, 10, 1)" stroke-width="1.5"></path><path d="M353.09 -23.15L353.09 -23.15" stroke="rgba(128, 10, 10, 1)" stroke-width="1.5"></path><path d="M353.09 -23.15L336.29 45.87" stroke="rgba(128, 10, 10, 1)" stroke-width="1.5"></path><path d="M353.09 -23.15L425.95 -54.94" stroke="rgba(128, 10, 10, 1)" stroke-width="1.5"></path><path d="M353.09 -23.15L403.17 45.64" stroke="rgba(128, 10, 10, 1)" stroke-width="1.5"></path><path d="M336.29 45.87L336.29 45.87" stroke="rgba(128, 10, 10, 1)" stroke-width="1.5"></path><path d="M336.29 45.87L331.88 105.51" stroke="rgba(128, 10, 10, 1)" stroke-width="1.5"></path><path d="M336.29 45.87L403.17 45.64" stroke="rgba(128, 10, 10, 1)" stroke-width="1.5"></path><path d="M336.29 45.87L425.72 94.98" stroke="rgba(128, 10, 10, 1)" stroke-width="1.5"></path><path d="M331.88 105.51L331.88 105.51" stroke="rgba(128, 10, 10, 1)" stroke-width="1.5"></path><path d="M325.96 179.66L325.96 179.66" stroke="rgba(128, 10, 10, 1)" stroke-width="1.5"></path><path d="M325.96 179.66L331.88 105.51" stroke="rgba(128, 10, 10, 1)" stroke-width="1.5"></path><path d="M325.96 179.66L324.86 268.49" stroke="rgba(128, 10, 10, 1)" stroke-width="1.5"></path><path d="M325.96 179.66L403 244.71" stroke="rgba(128, 10, 10, 1)" stroke-width="1.5"></path><path d="M324.86 268.49L324.86 268.49" stroke="rgba(128, 10, 10, 1)" stroke-width="1.5"></path><path d="M324.86 268.49L321.42 322.76" stroke="rgba(128, 10, 10, 1)" stroke-width="1.5"></path><path d="M324.86 268.49L403 244.71" stroke="rgba(128, 10, 10, 1)" stroke-width="1.5"></path><path d="M321.42 322.76L321.42 322.76" stroke="rgba(128, 10, 10, 1)" stroke-width="1.5"></path><path d="M321.42 322.76L346.48 406.44" stroke="rgba(128, 10, 10, 1)" stroke-width="1.5"></path><path d="M346.48 406.44L346.48 406.44" stroke="rgba(128, 10, 10, 1)" stroke-width="1.5"></path><path d="M325.95 485.42L325.95 485.42" stroke="rgba(128, 10, 10, 1)" stroke-width="1.5"></path><path d="M325.95 485.42L396.41 469.02" stroke="rgba(128, 10, 10, 1)" stroke-width="1.5"></path><path d="M352.32 575.15L352.32 575.15" stroke="rgba(128, 10, 10, 1)" stroke-width="1.5"></path><path d="M352.32 575.15L394.5 554.87" stroke="rgba(128, 10, 10, 1)" stroke-width="1.5"></path><path d="M352.32 575.15L335.76 631.9" stroke="rgba(128, 10, 10, 1)" stroke-width="1.5"></path><path d="M352.32 575.15L420.96 630.09" stroke="rgba(128, 10, 10, 1)" stroke-width="1.5"></path><path d="M335.76 631.9L335.76 631.9" stroke="rgba(128, 10, 10, 1)" stroke-width="1.5"></path><path d="M335.76 631.9L420.96 630.09" stroke="rgba(128, 10, 10, 1)" stroke-width="1.5"></path><path d="M425.95 -54.94L425.95 -54.94" stroke="rgba(128, 10, 10, 1)" stroke-width="1.5"></path><path d="M425.95 -54.94L403.17 45.64" stroke="rgba(128, 10, 10, 1)" stroke-width="1.5"></path><path d="M425.95 -54.94L336.29 45.87" stroke="rgba(128, 10, 10, 1)" stroke-width="1.5"></path><path d="M425.95 -54.94L425.72 94.98" stroke="rgba(128, 10, 10, 1)" stroke-width="1.5"></path><path d="M403.17 45.64L403.17 45.64" stroke="rgba(128, 10, 10, 1)" stroke-width="1.5"></path><path d="M403.17 45.64L425.72 94.98" stroke="rgba(128, 10, 10, 1)" stroke-width="1.5"></path><path d="M403.17 45.64L331.88 105.51" stroke="rgba(128, 10, 10, 1)" stroke-width="1.5"></path><path d="M425.72 94.98L425.72 94.98" stroke="rgba(128, 10, 10, 1)" stroke-width="1.5"></path><path d="M425.72 94.98L331.88 105.51" stroke="rgba(128, 10, 10, 1)" stroke-width="1.5"></path><path d="M425.72 94.98L325.96 179.66" stroke="rgba(128, 10, 10, 1)" stroke-width="1.5"></path><path d="M403 244.71L403 244.71" stroke="rgba(128, 10, 10, 1)" stroke-width="1.5"></path><path d="M403 244.71L419.31 349.64" stroke="rgba(128, 10, 10, 1)" stroke-width="1.5"></path><path d="M403 244.71L321.42 322.76" stroke="rgba(128, 10, 10, 1)" stroke-width="1.5"></path><path d="M403 244.71L425.72 94.98" stroke="rgba(128, 10, 10, 1)" stroke-width="1.5"></path><path d="M403 244.71L276.9 330.43" stroke="rgba(128, 10, 10, 1)" stroke-width="1.5"></path><path d="M419.31 349.64L419.31 349.64" stroke="rgba(128, 10, 10, 1)" stroke-width="1.5"></path><path d="M419.31 349.64L346.48 406.44" stroke="rgba(128, 10, 10, 1)" stroke-width="1.5"></path><path d="M419.31 349.64L321.42 322.76" stroke="rgba(128, 10, 10, 1)" stroke-width="1.5"></path><path d="M419.31 349.64L396.41 469.02" stroke="rgba(128, 10, 10, 1)" stroke-width="1.5"></path><path d="M419.31 349.64L324.86 268.49" stroke="rgba(128, 10, 10, 1)" stroke-width="1.5"></path><path d="M419.31 349.64L276.9 330.43" stroke="rgba(128, 10, 10, 1)" stroke-width="1.5"></path><path d="M396.41 469.02L396.41 469.02" stroke="rgba(128, 10, 10, 1)" stroke-width="1.5"></path><path d="M396.41 469.02L346.48 406.44" stroke="rgba(128, 10, 10, 1)" stroke-width="1.5"></path><path d="M394.5 554.87L394.5 554.87" stroke="rgba(128, 10, 10, 1)" stroke-width="1.5"></path><path d="M394.5 554.87L420.96 630.09" stroke="rgba(128, 10, 10, 1)" stroke-width="1.5"></path><path d="M394.5 554.87L396.41 469.02" stroke="rgba(128, 10, 10, 1)" stroke-width="1.5"></path><path d="M420.96 630.09L420.96 630.09" stroke="rgba(128, 10, 10, 1)" stroke-width="1.5"></path><path d="M420.96 630.09L277.02 566.16" stroke="rgba(128, 10, 10, 1)" stroke-width="1.5"></path><circle r="5" cx="-44.79" cy="429.61" fill="rgba(128, 10, 10, 1)"></circle><circle r="5" cx="-32.12" cy="496.2" fill="rgba(128, 10, 10, 1)"></circle><circle r="5" cx="-46.66" cy="554.18" fill="rgba(128, 10, 10, 1)"></circle><circle r="5" cx="-48.2" cy="655.42" fill="rgba(128, 10, 10, 1)"></circle><circle r="5" cx="34.26" cy="394.36" fill="rgba(128, 10, 10, 1)"></circle><circle r="5" cx="28.41" cy="494.21" fill="rgba(128, 10, 10, 1)"></circle><circle r="5" cx="34.18" cy="545.87" fill="rgba(128, 10, 10, 1)"></circle><circle r="5" cx="29.11" cy="625.46" fill="rgba(128, 10, 10, 1)"></circle><circle r="5" cx="114.72" cy="330.63" fill="rgba(128, 10, 10, 1)"></circle><circle r="5" cx="127.39" cy="397.53" fill="rgba(128, 10, 10, 1)"></circle><circle r="5" cx="102.42" cy="478.54" fill="rgba(128, 10, 10, 1)"></circle><circle r="5" cx="126.58" cy="557.7" fill="rgba(128, 10, 10, 1)"></circle><circle r="5" cx="101.45" cy="619.03" fill="rgba(128, 10, 10, 1)"></circle><circle r="5" cx="205.86" cy="182.61" fill="rgba(128, 10, 10, 1)"></circle><circle r="5" cx="176.22" cy="254.74" fill="rgba(128, 10, 10, 1)"></circle><circle r="5" cx="187.32" cy="333.97" fill="rgba(128, 10, 10, 1)"></circle><circle r="5" cx="185.81" cy="415.13" fill="rgba(128, 10, 10, 1)"></circle><circle r="5" cx="187.44" cy="501.7" fill="rgba(128, 10, 10, 1)"></circle><circle r="5" cx="177.02" cy="580.01" fill="rgba(128, 10, 10, 1)"></circle><circle r="5" cx="175.99" cy="649.52" fill="rgba(128, 10, 10, 1)"></circle><circle r="5" cx="244.21" cy="-44.8" fill="rgba(128, 10, 10, 1)"></circle><circle r="5" cx="278.48" cy="49.21" fill="rgba(128, 10, 10, 1)"></circle><circle r="5" cx="270.91" cy="99.06" fill="rgba(128, 10, 10, 1)"></circle><circle r="5" cx="276.9" cy="330.43" fill="rgba(128, 10, 10, 1)"></circle><circle r="5" cx="275.54" cy="425.36" fill="rgba(128, 10, 10, 1)"></circle><circle r="5" cx="261.22" cy="475.12" fill="rgba(128, 10, 10, 1)"></circle><circle r="5" cx="277.02" cy="566.16" fill="rgba(128, 10, 10, 1)"></circle><circle r="5" cx="270.22" cy="654.92" fill="rgba(128, 10, 10, 1)"></circle><circle r="5" cx="353.09" cy="-23.15" fill="rgba(128, 10, 10, 1)"></circle><circle r="5" cx="336.29" cy="45.87" fill="rgba(128, 10, 10, 1)"></circle><circle r="5" cx="331.88" cy="105.51" fill="rgba(128, 10, 10, 1)"></circle><circle r="5" cx="325.96" cy="179.66" fill="rgba(128, 10, 10, 1)"></circle><circle r="5" cx="324.86" cy="268.49" fill="rgba(128, 10, 10, 1)"></circle><circle r="5" cx="321.42" cy="322.76" fill="rgba(128, 10, 10, 1)"></circle><circle r="5" cx="346.48" cy="406.44" fill="rgba(128, 10, 10, 1)"></circle><circle r="5" cx="325.95" cy="485.42" fill="rgba(128, 10, 10, 1)"></circle><circle r="5" cx="352.32" cy="575.15" fill="rgba(128, 10, 10, 1)"></circle><circle r="5" cx="335.76" cy="631.9" fill="rgba(128, 10, 10, 1)"></circle><circle r="5" cx="425.95" cy="-54.94" fill="rgba(128, 10, 10, 1)"></circle><circle r="5" cx="403.17" cy="45.64" fill="rgba(128, 10, 10, 1)"></circle><circle r="5" cx="425.72" cy="94.98" fill="rgba(128, 10, 10, 1)"></circle><circle r="5" cx="403" cy="244.71" fill="rgba(128, 10, 10, 1)"></circle><circle r="5" cx="419.31" cy="349.64" fill="rgba(128, 10, 10, 1)"></circle><circle r="5" cx="396.41" cy="469.02" fill="rgba(128, 10, 10, 1)"></circle><circle r="5" cx="394.5" cy="554.87" fill="rgba(128, 10, 10, 1)"></circle><circle r="5" cx="420.96" cy="630.09" fill="rgba(128, 10, 10, 1)"></circle><path d="M279.03 476.66L279.03 476.66" stroke="hsl(0, 100%, 65%)" stroke-width="1.5"></path><path d="M279.03 476.66L328.39 489.34" stroke="hsl(0, 100%, 65%)" stroke-width="1.5"></path><path d="M279.03 476.66L261.64 414.97" stroke="hsl(0, 100%, 65%)" stroke-width="1.5"></path><path d="M279.13 577.53L279.13 577.53" stroke="hsl(0, 100%, 65%)" stroke-width="1.5"></path><path d="M279.13 577.53L329.62 555.86" stroke="hsl(0, 100%, 65%)" stroke-width="1.5"></path><path d="M279.13 577.53L273.94 632.45" stroke="hsl(0, 100%, 65%)" stroke-width="1.5"></path><path d="M279.13 577.53L204.61 569.95" stroke="hsl(0, 100%, 65%)" stroke-width="1.5"></path><path d="M279.13 577.53L279.03 476.66" stroke="hsl(0, 100%, 65%)" stroke-width="1.5"></path><path d="M279.13 577.53L328.39 489.34" stroke="hsl(0, 100%, 65%)" stroke-width="1.5"></path><path d="M279.13 577.53L204.93 497.44" stroke="hsl(0, 100%, 65%)" stroke-width="1.5"></path><path d="M273.94 632.45L273.94 632.45" stroke="hsl(0, 100%, 65%)" stroke-width="1.5"></path><path d="M273.94 632.45L188.04 647.73" stroke="hsl(0, 100%, 65%)" stroke-width="1.5"></path><path d="M273.94 632.45L204.61 569.95" stroke="hsl(0, 100%, 65%)" stroke-width="1.5"></path><path d="M273.94 632.45L329.62 555.86" stroke="hsl(0, 100%, 65%)" stroke-width="1.5"></path><path d="M334.83 -52.73L334.83 -52.73" stroke="hsl(0, 100%, 65%)" stroke-width="1.5"></path><path d="M334.83 -52.73L399.38 -36.24" stroke="hsl(0, 100%, 65%)" stroke-width="1.5"></path><path d="M334.83 -52.73L337.35 38.84" stroke="hsl(0, 100%, 65%)" stroke-width="1.5"></path><path d="M337.35 38.84L337.35 38.84" stroke="hsl(0, 100%, 65%)" stroke-width="1.5"></path><path d="M337.35 38.84L339.25 106.02" stroke="hsl(0, 100%, 65%)" stroke-width="1.5"></path><path d="M337.35 38.84L406.92 30.06" stroke="hsl(0, 100%, 65%)" stroke-width="1.5"></path><path d="M337.35 38.84L399.38 -36.24" stroke="hsl(0, 100%, 65%)" stroke-width="1.5"></path><path d="M337.35 38.84L395.22 120.65" stroke="hsl(0, 100%, 65%)" stroke-width="1.5"></path><path d="M337.35 38.84L338.68 175.23" stroke="hsl(0, 100%, 65%)" stroke-width="1.5"></path><path d="M338.68 175.23L338.68 175.23" stroke="hsl(0, 100%, 65%)" stroke-width="1.5"></path><path d="M338.68 175.23L404.79 180.25" stroke="hsl(0, 100%, 65%)" stroke-width="1.5"></path><path d="M338.68 175.23L339.25 106.02" stroke="hsl(0, 100%, 65%)" stroke-width="1.5"></path><path d="M338.68 175.23L395.22 120.65" stroke="hsl(0, 100%, 65%)" stroke-width="1.5"></path><path d="M338.68 175.23L327.44 260.92" stroke="hsl(0, 100%, 65%)" stroke-width="1.5"></path><path d="M338.68 175.23L428.78 250.31" stroke="hsl(0, 100%, 65%)" stroke-width="1.5"></path><path d="M328.39 489.34L328.39 489.34" stroke="hsl(0, 100%, 65%)" stroke-width="1.5"></path><path d="M328.39 489.34L329.62 555.86" stroke="hsl(0, 100%, 65%)" stroke-width="1.5"></path><path d="M328.39 489.34L401.06 546.48" stroke="hsl(0, 100%, 65%)" stroke-width="1.5"></path><path d="M395.22 120.65L395.22 120.65" stroke="hsl(0, 100%, 65%)" stroke-width="1.5"></path><path d="M395.22 120.65L339.25 106.02" stroke="hsl(0, 100%, 65%)" stroke-width="1.5"></path><path d="M395.22 120.65L404.79 180.25" stroke="hsl(0, 100%, 65%)" stroke-width="1.5"></path><path d="M395.22 120.65L406.92 30.06" stroke="hsl(0, 100%, 65%)" stroke-width="1.5"></path><path d="M395.22 120.65L428.78 250.31" stroke="hsl(0, 100%, 65%)" stroke-width="1.5"></path><path d="M-47.35 474.1L-47.35 474.1" stroke="hsl(0, 100%, 65%)" stroke-width="1.5"></path><path d="M-47.35 474.1L33.71 496.45" stroke="hsl(0, 100%, 65%)" stroke-width="1.5"></path><path d="M-47.35 474.1L-48.18 578.44" stroke="hsl(0, 100%, 65%)" stroke-width="1.5"></path><path d="M-47.35 474.1L35.8 568.21" stroke="hsl(0, 100%, 65%)" stroke-width="1.5"></path><path d="M-48.18 578.44L-48.18 578.44" stroke="hsl(0, 100%, 65%)" stroke-width="1.5"></path><path d="M-48.18 578.44L35.8 568.21" stroke="hsl(0, 100%, 65%)" stroke-width="1.5"></path><path d="M-48.18 578.44L34.37 643.26" stroke="hsl(0, 100%, 65%)" stroke-width="1.5"></path><path d="M33.71 496.45L33.71 496.45" stroke="hsl(0, 100%, 65%)" stroke-width="1.5"></path><path d="M33.71 496.45L105.13 491.89" stroke="hsl(0, 100%, 65%)" stroke-width="1.5"></path><path d="M33.71 496.45L35.8 568.21" stroke="hsl(0, 100%, 65%)" stroke-width="1.5"></path><path d="M33.71 496.45L100.48 543.93" stroke="hsl(0, 100%, 65%)" stroke-width="1.5"></path><path d="M35.8 568.21L35.8 568.21" stroke="hsl(0, 100%, 65%)" stroke-width="1.5"></path><path d="M35.8 568.21L100.48 543.93" stroke="hsl(0, 100%, 65%)" stroke-width="1.5"></path><path d="M35.8 568.21L34.37 643.26" stroke="hsl(0, 100%, 65%)" stroke-width="1.5"></path><path d="M34.37 643.26L34.37 643.26" stroke="hsl(0, 100%, 65%)" stroke-width="1.5"></path><path d="M34.37 643.26L123.61 630.97" stroke="hsl(0, 100%, 65%)" stroke-width="1.5"></path><path d="M34.37 643.26L100.48 543.93" stroke="hsl(0, 100%, 65%)" stroke-width="1.5"></path><path d="M34.37 643.26L33.71 496.45" stroke="hsl(0, 100%, 65%)" stroke-width="1.5"></path><path d="M34.37 643.26L188.04 647.73" stroke="hsl(0, 100%, 65%)" stroke-width="1.5"></path><path d="M105.13 491.89L105.13 491.89" stroke="hsl(0, 100%, 65%)" stroke-width="1.5"></path><path d="M105.13 491.89L100.48 543.93" stroke="hsl(0, 100%, 65%)" stroke-width="1.5"></path><path d="M105.13 491.89L177.25 428.12" stroke="hsl(0, 100%, 65%)" stroke-width="1.5"></path><path d="M105.13 491.89L204.93 497.44" stroke="hsl(0, 100%, 65%)" stroke-width="1.5"></path><path d="M105.13 491.89L35.8 568.21" stroke="hsl(0, 100%, 65%)" stroke-width="1.5"></path><path d="M100.48 543.93L100.48 543.93" stroke="hsl(0, 100%, 65%)" stroke-width="1.5"></path><path d="M123.61 630.97L123.61 630.97" stroke="hsl(0, 100%, 65%)" stroke-width="1.5"></path><path d="M123.61 630.97L188.04 647.73" stroke="hsl(0, 100%, 65%)" stroke-width="1.5"></path><path d="M123.61 630.97L100.48 543.93" stroke="hsl(0, 100%, 65%)" stroke-width="1.5"></path><path d="M123.61 630.97L204.61 569.95" stroke="hsl(0, 100%, 65%)" stroke-width="1.5"></path><path d="M177.25 428.12L177.25 428.12" stroke="hsl(0, 100%, 65%)" stroke-width="1.5"></path><path d="M177.25 428.12L204.93 497.44" stroke="hsl(0, 100%, 65%)" stroke-width="1.5"></path><path d="M177.25 428.12L261.64 414.97" stroke="hsl(0, 100%, 65%)" stroke-width="1.5"></path><path d="M177.25 428.12L250.07 343.41" stroke="hsl(0, 100%, 65%)" stroke-width="1.5"></path><path d="M177.25 428.12L279.03 476.66" stroke="hsl(0, 100%, 65%)" stroke-width="1.5"></path><path d="M177.25 428.12L100.48 543.93" stroke="hsl(0, 100%, 65%)" stroke-width="1.5"></path><path d="M204.93 497.44L204.93 497.44" stroke="hsl(0, 100%, 65%)" stroke-width="1.5"></path><path d="M204.93 497.44L204.61 569.95" stroke="hsl(0, 100%, 65%)" stroke-width="1.5"></path><path d="M204.93 497.44L279.03 476.66" stroke="hsl(0, 100%, 65%)" stroke-width="1.5"></path><path d="M204.61 569.95L204.61 569.95" stroke="hsl(0, 100%, 65%)" stroke-width="1.5"></path><path d="M204.61 569.95L188.04 647.73" stroke="hsl(0, 100%, 65%)" stroke-width="1.5"></path><path d="M188.04 647.73L188.04 647.73" stroke="hsl(0, 100%, 65%)" stroke-width="1.5"></path><path d="M265.74 279.08L265.74 279.08" stroke="hsl(0, 100%, 65%)" stroke-width="1.5"></path><path d="M265.74 279.08L327.44 260.92" stroke="hsl(0, 100%, 65%)" stroke-width="1.5"></path><path d="M250.07 343.41L250.07 343.41" stroke="hsl(0, 100%, 65%)" stroke-width="1.5"></path><path d="M250.07 343.41L265.74 279.08" stroke="hsl(0, 100%, 65%)" stroke-width="1.5"></path><path d="M250.07 343.41L261.64 414.97" stroke="hsl(0, 100%, 65%)" stroke-width="1.5"></path><path d="M250.07 343.41L348.35 332.09" stroke="hsl(0, 100%, 65%)" stroke-width="1.5"></path><path d="M250.07 343.41L341.93 397.26" stroke="hsl(0, 100%, 65%)" stroke-width="1.5"></path><path d="M250.07 343.41L327.44 260.92" stroke="hsl(0, 100%, 65%)" stroke-width="1.5"></path><path d="M261.64 414.97L261.64 414.97" stroke="hsl(0, 100%, 65%)" stroke-width="1.5"></path><path d="M261.64 414.97L341.93 397.26" stroke="hsl(0, 100%, 65%)" stroke-width="1.5"></path><path d="M261.64 414.97L328.39 489.34" stroke="hsl(0, 100%, 65%)" stroke-width="1.5"></path><path d="M261.64 414.97L204.93 497.44" stroke="hsl(0, 100%, 65%)" stroke-width="1.5"></path><path d="M339.25 106.02L339.25 106.02" stroke="hsl(0, 100%, 65%)" stroke-width="1.5"></path><path d="M339.25 106.02L404.79 180.25" stroke="hsl(0, 100%, 65%)" stroke-width="1.5"></path><path d="M339.25 106.02L406.92 30.06" stroke="hsl(0, 100%, 65%)" stroke-width="1.5"></path><path d="M339.25 106.02L399.38 -36.24" stroke="hsl(0, 100%, 65%)" stroke-width="1.5"></path><path d="M327.44 260.92L327.44 260.92" stroke="hsl(0, 100%, 65%)" stroke-width="1.5"></path><path d="M327.44 260.92L348.35 332.09" stroke="hsl(0, 100%, 65%)" stroke-width="1.5"></path><path d="M348.35 332.09L348.35 332.09" stroke="hsl(0, 100%, 65%)" stroke-width="1.5"></path><path d="M348.35 332.09L396.58 345.34" stroke="hsl(0, 100%, 65%)" stroke-width="1.5"></path><path d="M348.35 332.09L341.93 397.26" stroke="hsl(0, 100%, 65%)" stroke-width="1.5"></path><path d="M341.93 397.26L341.93 397.26" stroke="hsl(0, 100%, 65%)" stroke-width="1.5"></path><path d="M341.93 397.26L396.58 345.34" stroke="hsl(0, 100%, 65%)" stroke-width="1.5"></path><path d="M329.62 555.86L329.62 555.86" stroke="hsl(0, 100%, 65%)" stroke-width="1.5"></path><path d="M399.38 -36.24L399.38 -36.24" stroke="hsl(0, 100%, 65%)" stroke-width="1.5"></path><path d="M399.38 -36.24L406.92 30.06" stroke="hsl(0, 100%, 65%)" stroke-width="1.5"></path><path d="M399.38 -36.24L395.22 120.65" stroke="hsl(0, 100%, 65%)" stroke-width="1.5"></path><path d="M399.38 -36.24L404.79 180.25" stroke="hsl(0, 100%, 65%)" stroke-width="1.5"></path><path d="M406.92 30.06L406.92 30.06" stroke="hsl(0, 100%, 65%)" stroke-width="1.5"></path><path d="M406.92 30.06L334.83 -52.73" stroke="hsl(0, 100%, 65%)" stroke-width="1.5"></path><path d="M406.92 30.06L404.79 180.25" stroke="hsl(0, 100%, 65%)" stroke-width="1.5"></path><path d="M404.79 180.25L404.79 180.25" stroke="hsl(0, 100%, 65%)" stroke-width="1.5"></path><path d="M428.78 250.31L428.78 250.31" stroke="hsl(0, 100%, 65%)" stroke-width="1.5"></path><path d="M428.78 250.31L404.79 180.25" stroke="hsl(0, 100%, 65%)" stroke-width="1.5"></path><path d="M428.78 250.31L396.58 345.34" stroke="hsl(0, 100%, 65%)" stroke-width="1.5"></path><path d="M396.58 345.34L396.58 345.34" stroke="hsl(0, 100%, 65%)" stroke-width="1.5"></path><path d="M396.58 345.34L427.34 429.19" stroke="hsl(0, 100%, 65%)" stroke-width="1.5"></path><path d="M396.58 345.34L327.44 260.92" stroke="hsl(0, 100%, 65%)" stroke-width="1.5"></path><path d="M396.58 345.34L250.07 343.41" stroke="hsl(0, 100%, 65%)" stroke-width="1.5"></path><path d="M427.34 429.19L427.34 429.19" stroke="hsl(0, 100%, 65%)" stroke-width="1.5"></path><path d="M427.34 429.19L341.93 397.26" stroke="hsl(0, 100%, 65%)" stroke-width="1.5"></path><path d="M427.34 429.19L328.39 489.34" stroke="hsl(0, 100%, 65%)" stroke-width="1.5"></path><path d="M427.34 429.19L401.06 546.48" stroke="hsl(0, 100%, 65%)" stroke-width="1.5"></path><path d="M427.34 429.19L348.35 332.09" stroke="hsl(0, 100%, 65%)" stroke-width="1.5"></path><path d="M427.34 429.19L279.03 476.66" stroke="hsl(0, 100%, 65%)" stroke-width="1.5"></path><path d="M401.06 546.48L401.06 546.48" stroke="hsl(0, 100%, 65%)" stroke-width="1.5"></path><path d="M401.06 546.48L329.62 555.86" stroke="hsl(0, 100%, 65%)" stroke-width="1.5"></path><path d="M401.06 546.48L426.66 629.22" stroke="hsl(0, 100%, 65%)" stroke-width="1.5"></path><path d="M401.06 546.48L279.13 577.53" stroke="hsl(0, 100%, 65%)" stroke-width="1.5"></path><path d="M401.06 546.48L279.03 476.66" stroke="hsl(0, 100%, 65%)" stroke-width="1.5"></path><path d="M426.66 629.22L426.66 629.22" stroke="hsl(0, 100%, 65%)" stroke-width="1.5"></path><path d="M426.66 629.22L329.62 555.86" stroke="hsl(0, 100%, 65%)" stroke-width="1.5"></path><path d="M426.66 629.22L273.94 632.45" stroke="hsl(0, 100%, 65%)" stroke-width="1.5"></path><path d="M426.66 629.22L279.13 577.53" stroke="hsl(0, 100%, 65%)" stroke-width="1.5"></path><path d="M426.66 629.22L328.39 489.34" stroke="hsl(0, 100%, 65%)" stroke-width="1.5"></path><path d="M426.66 629.22L427.34 429.19" stroke="hsl(0, 100%, 65%)" stroke-width="1.5"></path><circle r="25" cx="279.03" cy="476.66" fill="url(#SvgjsRadialGradient1183)"></circle><circle r="25" cx="279.13" cy="577.53" fill="url(#SvgjsRadialGradient1183)"></circle><circle r="25" cx="273.94" cy="632.45" fill="url(#SvgjsRadialGradient1183)"></circle><circle r="25" cx="334.83" cy="-52.73" fill="url(#SvgjsRadialGradient1183)"></circle><circle r="25" cx="337.35" cy="38.84" fill="url(#SvgjsRadialGradient1183)"></circle><circle r="25" cx="338.68" cy="175.23" fill="url(#SvgjsRadialGradient1183)"></circle><circle r="25" cx="328.39" cy="489.34" fill="url(#SvgjsRadialGradient1183)"></circle><circle r="25" cx="395.22" cy="120.65" fill="url(#SvgjsRadialGradient1183)"></circle><circle r="5" cx="-47.35" cy="474.1" fill="#ff8080"></circle><circle r="5" cx="-48.18" cy="578.44" fill="#ff8080"></circle><circle r="5" cx="33.71" cy="496.45" fill="#ff8080"></circle><circle r="5" cx="35.8" cy="568.21" fill="#ff8080"></circle><circle r="5" cx="34.37" cy="643.26" fill="#ff8080"></circle><circle r="5" cx="105.13" cy="491.89" fill="#ff8080"></circle><circle r="5" cx="100.48" cy="543.93" fill="#ff8080"></circle><circle r="5" cx="123.61" cy="630.97" fill="#ff8080"></circle><circle r="5" cx="177.25" cy="428.12" fill="#ff8080"></circle><circle r="5" cx="204.93" cy="497.44" fill="#ff8080"></circle><circle r="5" cx="204.61" cy="569.95" fill="#ff8080"></circle><circle r="5" cx="188.04" cy="647.73" fill="#ff8080"></circle><circle r="5" cx="265.74" cy="279.08" fill="#ff8080"></circle><circle r="5" cx="250.07" cy="343.41" fill="#ff8080"></circle><circle r="5" cx="261.64" cy="414.97" fill="#ff8080"></circle><circle r="5" cx="339.25" cy="106.02" fill="#ff8080"></circle><circle r="5" cx="327.44" cy="260.92" fill="#ff8080"></circle><circle r="5" cx="348.35" cy="332.09" fill="#ff8080"></circle><circle r="5" cx="341.93" cy="397.26" fill="#ff8080"></circle><circle r="5" cx="329.62" cy="555.86" fill="#ff8080"></circle><circle r="5" cx="399.38" cy="-36.24" fill="#ff8080"></circle><circle r="5" cx="406.92" cy="30.06" fill="#ff8080"></circle><circle r="5" cx="404.79" cy="180.25" fill="#ff8080"></circle><circle r="5" cx="428.78" cy="250.31" fill="#ff8080"></circle><circle r="5" cx="396.58" cy="345.34" fill="#ff8080"></circle><circle r="5" cx="427.34" cy="429.19" fill="#ff8080"></circle><circle r="5" cx="401.06" cy="546.48" fill="#ff8080"></circle><circle r="5" cx="426.66" cy="629.22" fill="#ff8080"></circle></g><defs><mask id="SvgjsMask1182"><rect width="365" height="600" fill="#ffffff"></rect></mask><radialGradient id="SvgjsRadialGradient1183"><stop stop-color="#ffffff" offset="0.1"></stop><stop stop-color="rgba(255, 0, 0, 1)" offset="0.2"></stop><stop stop-color="rgba(255, 0, 0, 0)" offset="1"></stop></radialGradient></defs></svg>