<svg xmlns="http://www.w3.org/2000/svg" version="1.1" xmlns:xlink="http://www.w3.org/1999/xlink" xmlns:svgjs="http://svgjs.com/svgjs" width="768" height="600" preserveAspectRatio="none" viewBox="0 0 768 600"><g mask="url(&quot;#SvgjsMask1144&quot;)" fill="none"><rect width="768" height="600" x="0" y="0" fill="rgba(0, 0, 0, 1)"></rect><path d="M-33.8 414.28L-33.8 414.28" stroke="rgba(128, 10, 10, 1)" stroke-width="1.5"></path><path d="M-33.8 414.28L-40.95 504.03" stroke="rgba(128, 10, 10, 1)" stroke-width="1.5"></path><path d="M-33.8 414.28L70.55 435.4" stroke="rgba(128, 10, 10, 1)" stroke-width="1.5"></path><path d="M-40.95 504.03L-40.95 504.03" stroke="rgba(128, 10, 10, 1)" stroke-width="1.5"></path><path d="M-40.95 504.03L40.3 519.83" stroke="rgba(128, 10, 10, 1)" stroke-width="1.5"></path><path d="M-26.49 725.89L-26.49 725.89" stroke="rgba(128, 10, 10, 1)" stroke-width="1.5"></path><path d="M-26.49 725.89L53.27 722.71" stroke="rgba(128, 10, 10, 1)" stroke-width="1.5"></path><path d="M-26.49 725.89L52.38 640.84" stroke="rgba(128, 10, 10, 1)" stroke-width="1.5"></path><path d="M-26.49 725.89L135.28 708.66" stroke="rgba(128, 10, 10, 1)" stroke-width="1.5"></path><path d="M-26.49 725.89L163.4 635.5" stroke="rgba(128, 10, 10, 1)" stroke-width="1.5"></path><path d="M70.55 435.4L70.55 435.4" stroke="rgba(128, 10, 10, 1)" stroke-width="1.5"></path><path d="M70.55 435.4L131.26 437.72" stroke="rgba(128, 10, 10, 1)" stroke-width="1.5"></path><path d="M70.55 435.4L40.3 519.83" stroke="rgba(128, 10, 10, 1)" stroke-width="1.5"></path><path d="M70.55 435.4L167.88 506.36" stroke="rgba(128, 10, 10, 1)" stroke-width="1.5"></path><path d="M70.55 435.4L161.66 354.99" stroke="rgba(128, 10, 10, 1)" stroke-width="1.5"></path><path d="M40.3 519.83L40.3 519.83" stroke="rgba(128, 10, 10, 1)" stroke-width="1.5"></path><path d="M40.3 519.83L52.38 640.84" stroke="rgba(128, 10, 10, 1)" stroke-width="1.5"></path><path d="M40.3 519.83L131.26 437.72" stroke="rgba(128, 10, 10, 1)" stroke-width="1.5"></path><path d="M40.3 519.83L167.88 506.36" stroke="rgba(128, 10, 10, 1)" stroke-width="1.5"></path><path d="M40.3 519.83L-33.8 414.28" stroke="rgba(128, 10, 10, 1)" stroke-width="1.5"></path><path d="M52.38 640.84L52.38 640.84" stroke="rgba(128, 10, 10, 1)" stroke-width="1.5"></path><path d="M52.38 640.84L53.27 722.71" stroke="rgba(128, 10, 10, 1)" stroke-width="1.5"></path><path d="M52.38 640.84L135.28 708.66" stroke="rgba(128, 10, 10, 1)" stroke-width="1.5"></path><path d="M52.38 640.84L163.4 635.5" stroke="rgba(128, 10, 10, 1)" stroke-width="1.5"></path><path d="M53.27 722.71L53.27 722.71" stroke="rgba(128, 10, 10, 1)" stroke-width="1.5"></path><path d="M53.27 722.71L135.28 708.66" stroke="rgba(128, 10, 10, 1)" stroke-width="1.5"></path><path d="M53.27 722.71L163.4 635.5" stroke="rgba(128, 10, 10, 1)" stroke-width="1.5"></path><path d="M53.27 722.71L222.04 724.55" stroke="rgba(128, 10, 10, 1)" stroke-width="1.5"></path><path d="M161.66 354.99L161.66 354.99" stroke="rgba(128, 10, 10, 1)" stroke-width="1.5"></path><path d="M161.66 354.99L222.66 358.38" stroke="rgba(128, 10, 10, 1)" stroke-width="1.5"></path><path d="M161.66 354.99L131.26 437.72" stroke="rgba(128, 10, 10, 1)" stroke-width="1.5"></path><path d="M161.66 354.99L219.49 436.74" stroke="rgba(128, 10, 10, 1)" stroke-width="1.5"></path><path d="M161.66 354.99L167.88 506.36" stroke="rgba(128, 10, 10, 1)" stroke-width="1.5"></path><path d="M131.26 437.72L131.26 437.72" stroke="rgba(128, 10, 10, 1)" stroke-width="1.5"></path><path d="M131.26 437.72L167.88 506.36" stroke="rgba(128, 10, 10, 1)" stroke-width="1.5"></path><path d="M131.26 437.72L219.49 436.74" stroke="rgba(128, 10, 10, 1)" stroke-width="1.5"></path><path d="M131.26 437.72L222.66 358.38" stroke="rgba(128, 10, 10, 1)" stroke-width="1.5"></path><path d="M167.88 506.36L167.88 506.36" stroke="rgba(128, 10, 10, 1)" stroke-width="1.5"></path><path d="M167.88 506.36L231.74 541.81" stroke="rgba(128, 10, 10, 1)" stroke-width="1.5"></path><path d="M163.4 635.5L163.4 635.5" stroke="rgba(128, 10, 10, 1)" stroke-width="1.5"></path><path d="M163.4 635.5L227.84 627.3" stroke="rgba(128, 10, 10, 1)" stroke-width="1.5"></path><path d="M163.4 635.5L135.28 708.66" stroke="rgba(128, 10, 10, 1)" stroke-width="1.5"></path><path d="M163.4 635.5L222.04 724.55" stroke="rgba(128, 10, 10, 1)" stroke-width="1.5"></path><path d="M135.28 708.66L135.28 708.66" stroke="rgba(128, 10, 10, 1)" stroke-width="1.5"></path><path d="M135.28 708.66L222.04 724.55" stroke="rgba(128, 10, 10, 1)" stroke-width="1.5"></path><path d="M222.66 358.38L222.66 358.38" stroke="rgba(128, 10, 10, 1)" stroke-width="1.5"></path><path d="M222.66 358.38L219.49 436.74" stroke="rgba(128, 10, 10, 1)" stroke-width="1.5"></path><path d="M222.66 358.38L345.77 346.65" stroke="rgba(128, 10, 10, 1)" stroke-width="1.5"></path><path d="M219.49 436.74L219.49 436.74" stroke="rgba(128, 10, 10, 1)" stroke-width="1.5"></path><path d="M219.49 436.74L167.88 506.36" stroke="rgba(128, 10, 10, 1)" stroke-width="1.5"></path><path d="M219.49 436.74L231.74 541.81" stroke="rgba(128, 10, 10, 1)" stroke-width="1.5"></path><path d="M219.49 436.74L329.44 439.93" stroke="rgba(128, 10, 10, 1)" stroke-width="1.5"></path><path d="M231.74 541.81L231.74 541.81" stroke="rgba(128, 10, 10, 1)" stroke-width="1.5"></path><path d="M231.74 541.81L227.84 627.3" stroke="rgba(128, 10, 10, 1)" stroke-width="1.5"></path><path d="M231.74 541.81L323.1 549.63" stroke="rgba(128, 10, 10, 1)" stroke-width="1.5"></path><path d="M227.84 627.3L227.84 627.3" stroke="rgba(128, 10, 10, 1)" stroke-width="1.5"></path><path d="M227.84 627.3L222.04 724.55" stroke="rgba(128, 10, 10, 1)" stroke-width="1.5"></path><path d="M227.84 627.3L323.1 549.63" stroke="rgba(128, 10, 10, 1)" stroke-width="1.5"></path><path d="M227.84 627.3L135.28 708.66" stroke="rgba(128, 10, 10, 1)" stroke-width="1.5"></path><path d="M222.04 724.55L222.04 724.55" stroke="rgba(128, 10, 10, 1)" stroke-width="1.5"></path><path d="M222.04 724.55L338.49 719.12" stroke="rgba(128, 10, 10, 1)" stroke-width="1.5"></path><path d="M345.77 346.65L345.77 346.65" stroke="rgba(128, 10, 10, 1)" stroke-width="1.5"></path><path d="M345.77 346.65L411.76 354.77" stroke="rgba(128, 10, 10, 1)" stroke-width="1.5"></path><path d="M329.44 439.93L329.44 439.93" stroke="rgba(128, 10, 10, 1)" stroke-width="1.5"></path><path d="M329.44 439.93L345.77 346.65" stroke="rgba(128, 10, 10, 1)" stroke-width="1.5"></path><path d="M329.44 439.93L323.1 549.63" stroke="rgba(128, 10, 10, 1)" stroke-width="1.5"></path><path d="M323.1 549.63L323.1 549.63" stroke="rgba(128, 10, 10, 1)" stroke-width="1.5"></path><path d="M323.1 549.63L356.53 631.56" stroke="rgba(128, 10, 10, 1)" stroke-width="1.5"></path><path d="M356.53 631.56L356.53 631.56" stroke="rgba(128, 10, 10, 1)" stroke-width="1.5"></path><path d="M356.53 631.56L424.68 609.46" stroke="rgba(128, 10, 10, 1)" stroke-width="1.5"></path><path d="M356.53 631.56L338.49 719.12" stroke="rgba(128, 10, 10, 1)" stroke-width="1.5"></path><path d="M356.53 631.56L409.91 710.71" stroke="rgba(128, 10, 10, 1)" stroke-width="1.5"></path><path d="M338.49 719.12L338.49 719.12" stroke="rgba(128, 10, 10, 1)" stroke-width="1.5"></path><path d="M338.49 719.12L409.91 710.71" stroke="rgba(128, 10, 10, 1)" stroke-width="1.5"></path><path d="M422.66 157.15L422.66 157.15" stroke="rgba(128, 10, 10, 1)" stroke-width="1.5"></path><path d="M422.66 157.15L449.37 222.51" stroke="rgba(128, 10, 10, 1)" stroke-width="1.5"></path><path d="M422.66 157.15L522.01 161.25" stroke="rgba(128, 10, 10, 1)" stroke-width="1.5"></path><path d="M422.66 157.15L513.28 219.9" stroke="rgba(128, 10, 10, 1)" stroke-width="1.5"></path><path d="M422.66 157.15L518.6 55.62" stroke="rgba(128, 10, 10, 1)" stroke-width="1.5"></path><path d="M422.66 157.15L411.76 354.77" stroke="rgba(128, 10, 10, 1)" stroke-width="1.5"></path><path d="M449.37 222.51L449.37 222.51" stroke="rgba(128, 10, 10, 1)" stroke-width="1.5"></path><path d="M449.37 222.51L513.28 219.9" stroke="rgba(128, 10, 10, 1)" stroke-width="1.5"></path><path d="M411.76 354.77L411.76 354.77" stroke="rgba(128, 10, 10, 1)" stroke-width="1.5"></path><path d="M411.76 354.77L329.44 439.93" stroke="rgba(128, 10, 10, 1)" stroke-width="1.5"></path><path d="M438.41 529.86L438.41 529.86" stroke="rgba(128, 10, 10, 1)" stroke-width="1.5"></path><path d="M438.41 529.86L424.68 609.46" stroke="rgba(128, 10, 10, 1)" stroke-width="1.5"></path><path d="M438.41 529.86L525.9 531.63" stroke="rgba(128, 10, 10, 1)" stroke-width="1.5"></path><path d="M438.41 529.86L323.1 549.63" stroke="rgba(128, 10, 10, 1)" stroke-width="1.5"></path><path d="M438.41 529.86L356.53 631.56" stroke="rgba(128, 10, 10, 1)" stroke-width="1.5"></path><path d="M438.41 529.86L540.74 626.87" stroke="rgba(128, 10, 10, 1)" stroke-width="1.5"></path><path d="M438.41 529.86L329.44 439.93" stroke="rgba(128, 10, 10, 1)" stroke-width="1.5"></path><path d="M424.68 609.46L424.68 609.46" stroke="rgba(128, 10, 10, 1)" stroke-width="1.5"></path><path d="M424.68 609.46L409.91 710.71" stroke="rgba(128, 10, 10, 1)" stroke-width="1.5"></path><path d="M409.91 710.71L409.91 710.71" stroke="rgba(128, 10, 10, 1)" stroke-width="1.5"></path><path d="M549.01 -55.18L549.01 -55.18" stroke="rgba(128, 10, 10, 1)" stroke-width="1.5"></path><path d="M549.01 -55.18L518.6 55.62" stroke="rgba(128, 10, 10, 1)" stroke-width="1.5"></path><path d="M518.6 55.62L518.6 55.62" stroke="rgba(128, 10, 10, 1)" stroke-width="1.5"></path><path d="M518.6 55.62L600.94 59.82" stroke="rgba(128, 10, 10, 1)" stroke-width="1.5"></path><path d="M518.6 55.62L522.01 161.25" stroke="rgba(128, 10, 10, 1)" stroke-width="1.5"></path><path d="M522.01 161.25L522.01 161.25" stroke="rgba(128, 10, 10, 1)" stroke-width="1.5"></path><path d="M522.01 161.25L513.28 219.9" stroke="rgba(128, 10, 10, 1)" stroke-width="1.5"></path><path d="M522.01 161.25L449.37 222.51" stroke="rgba(128, 10, 10, 1)" stroke-width="1.5"></path><path d="M522.01 161.25L636.79 154.08" stroke="rgba(128, 10, 10, 1)" stroke-width="1.5"></path><path d="M522.01 161.25L600.94 59.82" stroke="rgba(128, 10, 10, 1)" stroke-width="1.5"></path><path d="M513.28 219.9L513.28 219.9" stroke="rgba(128, 10, 10, 1)" stroke-width="1.5"></path><path d="M513.28 219.9L548.76 316.88" stroke="rgba(128, 10, 10, 1)" stroke-width="1.5"></path><path d="M513.28 219.9L637.44 263.66" stroke="rgba(128, 10, 10, 1)" stroke-width="1.5"></path><path d="M513.28 219.9L606.32 321.99" stroke="rgba(128, 10, 10, 1)" stroke-width="1.5"></path><path d="M548.76 316.88L548.76 316.88" stroke="rgba(128, 10, 10, 1)" stroke-width="1.5"></path><path d="M548.76 316.88L606.32 321.99" stroke="rgba(128, 10, 10, 1)" stroke-width="1.5"></path><path d="M548.76 316.88L548.71 410.34" stroke="rgba(128, 10, 10, 1)" stroke-width="1.5"></path><path d="M548.76 316.88L637.44 263.66" stroke="rgba(128, 10, 10, 1)" stroke-width="1.5"></path><path d="M548.76 316.88L449.37 222.51" stroke="rgba(128, 10, 10, 1)" stroke-width="1.5"></path><path d="M548.76 316.88L411.76 354.77" stroke="rgba(128, 10, 10, 1)" stroke-width="1.5"></path><path d="M548.71 410.34L548.71 410.34" stroke="rgba(128, 10, 10, 1)" stroke-width="1.5"></path><path d="M548.71 410.34L636.36 442.84" stroke="rgba(128, 10, 10, 1)" stroke-width="1.5"></path><path d="M548.71 410.34L606.32 321.99" stroke="rgba(128, 10, 10, 1)" stroke-width="1.5"></path><path d="M548.71 410.34L525.9 531.63" stroke="rgba(128, 10, 10, 1)" stroke-width="1.5"></path><path d="M525.9 531.63L525.9 531.63" stroke="rgba(128, 10, 10, 1)" stroke-width="1.5"></path><path d="M525.9 531.63L540.74 626.87" stroke="rgba(128, 10, 10, 1)" stroke-width="1.5"></path><path d="M540.74 626.87L540.74 626.87" stroke="rgba(128, 10, 10, 1)" stroke-width="1.5"></path><path d="M540.74 626.87L620.93 697.73" stroke="rgba(128, 10, 10, 1)" stroke-width="1.5"></path><path d="M540.74 626.87L646.91 606.5" stroke="rgba(128, 10, 10, 1)" stroke-width="1.5"></path><path d="M600.94 59.82L600.94 59.82" stroke="rgba(128, 10, 10, 1)" stroke-width="1.5"></path><path d="M600.94 59.82L636.79 154.08" stroke="rgba(128, 10, 10, 1)" stroke-width="1.5"></path><path d="M600.94 59.82L549.01 -55.18" stroke="rgba(128, 10, 10, 1)" stroke-width="1.5"></path><path d="M636.79 154.08L636.79 154.08" stroke="rgba(128, 10, 10, 1)" stroke-width="1.5"></path><path d="M636.79 154.08L719.36 217.14" stroke="rgba(128, 10, 10, 1)" stroke-width="1.5"></path><path d="M636.79 154.08L637.44 263.66" stroke="rgba(128, 10, 10, 1)" stroke-width="1.5"></path><path d="M636.79 154.08L513.28 219.9" stroke="rgba(128, 10, 10, 1)" stroke-width="1.5"></path><path d="M637.44 263.66L637.44 263.66" stroke="rgba(128, 10, 10, 1)" stroke-width="1.5"></path><path d="M637.44 263.66L606.32 321.99" stroke="rgba(128, 10, 10, 1)" stroke-width="1.5"></path><path d="M637.44 263.66L704.73 318.01" stroke="rgba(128, 10, 10, 1)" stroke-width="1.5"></path><path d="M637.44 263.66L719.36 217.14" stroke="rgba(128, 10, 10, 1)" stroke-width="1.5"></path><path d="M606.32 321.99L606.32 321.99" stroke="rgba(128, 10, 10, 1)" stroke-width="1.5"></path><path d="M606.32 321.99L704.73 318.01" stroke="rgba(128, 10, 10, 1)" stroke-width="1.5"></path><path d="M636.36 442.84L636.36 442.84" stroke="rgba(128, 10, 10, 1)" stroke-width="1.5"></path><path d="M636.36 442.84L647.38 506.25" stroke="rgba(128, 10, 10, 1)" stroke-width="1.5"></path><path d="M636.36 442.84L722.28 412.3" stroke="rgba(128, 10, 10, 1)" stroke-width="1.5"></path><path d="M636.36 442.84L606.32 321.99" stroke="rgba(128, 10, 10, 1)" stroke-width="1.5"></path><path d="M636.36 442.84L525.9 531.63" stroke="rgba(128, 10, 10, 1)" stroke-width="1.5"></path><path d="M647.38 506.25L647.38 506.25" stroke="rgba(128, 10, 10, 1)" stroke-width="1.5"></path><path d="M647.38 506.25L646.91 606.5" stroke="rgba(128, 10, 10, 1)" stroke-width="1.5"></path><path d="M647.38 506.25L741.73 545.73" stroke="rgba(128, 10, 10, 1)" stroke-width="1.5"></path><path d="M647.38 506.25L722.28 412.3" stroke="rgba(128, 10, 10, 1)" stroke-width="1.5"></path><path d="M646.91 606.5L646.91 606.5" stroke="rgba(128, 10, 10, 1)" stroke-width="1.5"></path><path d="M646.91 606.5L620.93 697.73" stroke="rgba(128, 10, 10, 1)" stroke-width="1.5"></path><path d="M646.91 606.5L741.73 545.73" stroke="rgba(128, 10, 10, 1)" stroke-width="1.5"></path><path d="M620.93 697.73L620.93 697.73" stroke="rgba(128, 10, 10, 1)" stroke-width="1.5"></path><path d="M620.93 697.73L709.55 738.36" stroke="rgba(128, 10, 10, 1)" stroke-width="1.5"></path><path d="M709.12 -33.31L709.12 -33.31" stroke="rgba(128, 10, 10, 1)" stroke-width="1.5"></path><path d="M709.12 -33.31L740.02 36.51" stroke="rgba(128, 10, 10, 1)" stroke-width="1.5"></path><path d="M709.12 -33.31L792.79 26.05" stroke="rgba(128, 10, 10, 1)" stroke-width="1.5"></path><path d="M709.12 -33.31L820.15 -26.22" stroke="rgba(128, 10, 10, 1)" stroke-width="1.5"></path><path d="M740.02 36.51L740.02 36.51" stroke="rgba(128, 10, 10, 1)" stroke-width="1.5"></path><path d="M740.02 36.51L792.79 26.05" stroke="rgba(128, 10, 10, 1)" stroke-width="1.5"></path><path d="M740.02 36.51L820.15 -26.22" stroke="rgba(128, 10, 10, 1)" stroke-width="1.5"></path><path d="M740.02 36.51L801.69 162.97" stroke="rgba(128, 10, 10, 1)" stroke-width="1.5"></path><path d="M740.02 36.51L600.94 59.82" stroke="rgba(128, 10, 10, 1)" stroke-width="1.5"></path><path d="M719.36 217.14L719.36 217.14" stroke="rgba(128, 10, 10, 1)" stroke-width="1.5"></path><path d="M719.36 217.14L806.38 218.73" stroke="rgba(128, 10, 10, 1)" stroke-width="1.5"></path><path d="M719.36 217.14L801.69 162.97" stroke="rgba(128, 10, 10, 1)" stroke-width="1.5"></path><path d="M704.73 318.01L704.73 318.01" stroke="rgba(128, 10, 10, 1)" stroke-width="1.5"></path><path d="M704.73 318.01L722.28 412.3" stroke="rgba(128, 10, 10, 1)" stroke-width="1.5"></path><path d="M704.73 318.01L719.36 217.14" stroke="rgba(128, 10, 10, 1)" stroke-width="1.5"></path><path d="M704.73 318.01L838.28 332.49" stroke="rgba(128, 10, 10, 1)" stroke-width="1.5"></path><path d="M704.73 318.01L806.38 218.73" stroke="rgba(128, 10, 10, 1)" stroke-width="1.5"></path><path d="M722.28 412.3L722.28 412.3" stroke="rgba(128, 10, 10, 1)" stroke-width="1.5"></path><path d="M722.28 412.3L807.29 431.37" stroke="rgba(128, 10, 10, 1)" stroke-width="1.5"></path><path d="M722.28 412.3L741.73 545.73" stroke="rgba(128, 10, 10, 1)" stroke-width="1.5"></path><path d="M722.28 412.3L838.28 332.49" stroke="rgba(128, 10, 10, 1)" stroke-width="1.5"></path><path d="M741.73 545.73L741.73 545.73" stroke="rgba(128, 10, 10, 1)" stroke-width="1.5"></path><path d="M741.73 545.73L837.94 514.3" stroke="rgba(128, 10, 10, 1)" stroke-width="1.5"></path><path d="M741.73 545.73L836.32 628.82" stroke="rgba(128, 10, 10, 1)" stroke-width="1.5"></path><path d="M741.73 545.73L807.29 431.37" stroke="rgba(128, 10, 10, 1)" stroke-width="1.5"></path><path d="M709.55 738.36L709.55 738.36" stroke="rgba(128, 10, 10, 1)" stroke-width="1.5"></path><path d="M709.55 738.36L809.19 736.99" stroke="rgba(128, 10, 10, 1)" stroke-width="1.5"></path><path d="M820.15 -26.22L820.15 -26.22" stroke="rgba(128, 10, 10, 1)" stroke-width="1.5"></path><path d="M820.15 -26.22L792.79 26.05" stroke="rgba(128, 10, 10, 1)" stroke-width="1.5"></path><path d="M820.15 -26.22L801.69 162.97" stroke="rgba(128, 10, 10, 1)" stroke-width="1.5"></path><path d="M792.79 26.05L792.79 26.05" stroke="rgba(128, 10, 10, 1)" stroke-width="1.5"></path><path d="M801.69 162.97L801.69 162.97" stroke="rgba(128, 10, 10, 1)" stroke-width="1.5"></path><path d="M801.69 162.97L806.38 218.73" stroke="rgba(128, 10, 10, 1)" stroke-width="1.5"></path><path d="M801.69 162.97L792.79 26.05" stroke="rgba(128, 10, 10, 1)" stroke-width="1.5"></path><path d="M806.38 218.73L806.38 218.73" stroke="rgba(128, 10, 10, 1)" stroke-width="1.5"></path><path d="M806.38 218.73L838.28 332.49" stroke="rgba(128, 10, 10, 1)" stroke-width="1.5"></path><path d="M838.28 332.49L838.28 332.49" stroke="rgba(128, 10, 10, 1)" stroke-width="1.5"></path><path d="M838.28 332.49L807.29 431.37" stroke="rgba(128, 10, 10, 1)" stroke-width="1.5"></path><path d="M838.28 332.49L719.36 217.14" stroke="rgba(128, 10, 10, 1)" stroke-width="1.5"></path><path d="M838.28 332.49L801.69 162.97" stroke="rgba(128, 10, 10, 1)" stroke-width="1.5"></path><path d="M807.29 431.37L807.29 431.37" stroke="rgba(128, 10, 10, 1)" stroke-width="1.5"></path><path d="M807.29 431.37L837.94 514.3" stroke="rgba(128, 10, 10, 1)" stroke-width="1.5"></path><path d="M837.94 514.3L837.94 514.3" stroke="rgba(128, 10, 10, 1)" stroke-width="1.5"></path><path d="M837.94 514.3L836.32 628.82" stroke="rgba(128, 10, 10, 1)" stroke-width="1.5"></path><path d="M836.32 628.82L836.32 628.82" stroke="rgba(128, 10, 10, 1)" stroke-width="1.5"></path><path d="M836.32 628.82L809.19 736.99" stroke="rgba(128, 10, 10, 1)" stroke-width="1.5"></path><path d="M809.19 736.99L809.19 736.99" stroke="rgba(128, 10, 10, 1)" stroke-width="1.5"></path><path d="M809.19 736.99L620.93 697.73" stroke="rgba(128, 10, 10, 1)" stroke-width="1.5"></path><path d="M809.19 736.99L741.73 545.73" stroke="rgba(128, 10, 10, 1)" stroke-width="1.5"></path><circle r="5" cx="-33.8" cy="414.28" fill="rgba(128, 10, 10, 1)"></circle><circle r="5" cx="-40.95" cy="504.03" fill="rgba(128, 10, 10, 1)"></circle><circle r="5" cx="-26.49" cy="725.89" fill="rgba(128, 10, 10, 1)"></circle><circle r="5" cx="70.55" cy="435.4" fill="rgba(128, 10, 10, 1)"></circle><circle r="5" cx="40.3" cy="519.83" fill="rgba(128, 10, 10, 1)"></circle><circle r="5" cx="52.38" cy="640.84" fill="rgba(128, 10, 10, 1)"></circle><circle r="5" cx="53.27" cy="722.71" fill="rgba(128, 10, 10, 1)"></circle><circle r="5" cx="161.66" cy="354.99" fill="rgba(128, 10, 10, 1)"></circle><circle r="5" cx="131.26" cy="437.72" fill="rgba(128, 10, 10, 1)"></circle><circle r="5" cx="167.88" cy="506.36" fill="rgba(128, 10, 10, 1)"></circle><circle r="5" cx="163.4" cy="635.5" fill="rgba(128, 10, 10, 1)"></circle><circle r="5" cx="135.28" cy="708.66" fill="rgba(128, 10, 10, 1)"></circle><circle r="5" cx="222.66" cy="358.38" fill="rgba(128, 10, 10, 1)"></circle><circle r="5" cx="219.49" cy="436.74" fill="rgba(128, 10, 10, 1)"></circle><circle r="5" cx="231.74" cy="541.81" fill="rgba(128, 10, 10, 1)"></circle><circle r="5" cx="227.84" cy="627.3" fill="rgba(128, 10, 10, 1)"></circle><circle r="5" cx="222.04" cy="724.55" fill="rgba(128, 10, 10, 1)"></circle><circle r="5" cx="345.77" cy="346.65" fill="rgba(128, 10, 10, 1)"></circle><circle r="5" cx="329.44" cy="439.93" fill="rgba(128, 10, 10, 1)"></circle><circle r="5" cx="323.1" cy="549.63" fill="rgba(128, 10, 10, 1)"></circle><circle r="5" cx="356.53" cy="631.56" fill="rgba(128, 10, 10, 1)"></circle><circle r="5" cx="338.49" cy="719.12" fill="rgba(128, 10, 10, 1)"></circle><circle r="5" cx="422.66" cy="157.15" fill="rgba(128, 10, 10, 1)"></circle><circle r="5" cx="449.37" cy="222.51" fill="rgba(128, 10, 10, 1)"></circle><circle r="5" cx="411.76" cy="354.77" fill="rgba(128, 10, 10, 1)"></circle><circle r="5" cx="438.41" cy="529.86" fill="rgba(128, 10, 10, 1)"></circle><circle r="5" cx="424.68" cy="609.46" fill="rgba(128, 10, 10, 1)"></circle><circle r="5" cx="409.91" cy="710.71" fill="rgba(128, 10, 10, 1)"></circle><circle r="5" cx="549.01" cy="-55.18" fill="rgba(128, 10, 10, 1)"></circle><circle r="5" cx="518.6" cy="55.62" fill="rgba(128, 10, 10, 1)"></circle><circle r="5" cx="522.01" cy="161.25" fill="rgba(128, 10, 10, 1)"></circle><circle r="5" cx="513.28" cy="219.9" fill="rgba(128, 10, 10, 1)"></circle><circle r="5" cx="548.76" cy="316.88" fill="rgba(128, 10, 10, 1)"></circle><circle r="5" cx="548.71" cy="410.34" fill="rgba(128, 10, 10, 1)"></circle><circle r="5" cx="525.9" cy="531.63" fill="rgba(128, 10, 10, 1)"></circle><circle r="5" cx="540.74" cy="626.87" fill="rgba(128, 10, 10, 1)"></circle><circle r="5" cx="600.94" cy="59.82" fill="rgba(128, 10, 10, 1)"></circle><circle r="5" cx="636.79" cy="154.08" fill="rgba(128, 10, 10, 1)"></circle><circle r="5" cx="637.44" cy="263.66" fill="rgba(128, 10, 10, 1)"></circle><circle r="5" cx="606.32" cy="321.99" fill="rgba(128, 10, 10, 1)"></circle><circle r="5" cx="636.36" cy="442.84" fill="rgba(128, 10, 10, 1)"></circle><circle r="5" cx="647.38" cy="506.25" fill="rgba(128, 10, 10, 1)"></circle><circle r="5" cx="646.91" cy="606.5" fill="rgba(128, 10, 10, 1)"></circle><circle r="5" cx="620.93" cy="697.73" fill="rgba(128, 10, 10, 1)"></circle><circle r="5" cx="709.12" cy="-33.31" fill="rgba(128, 10, 10, 1)"></circle><circle r="5" cx="740.02" cy="36.51" fill="rgba(128, 10, 10, 1)"></circle><circle r="5" cx="719.36" cy="217.14" fill="rgba(128, 10, 10, 1)"></circle><circle r="5" cx="704.73" cy="318.01" fill="rgba(128, 10, 10, 1)"></circle><circle r="5" cx="722.28" cy="412.3" fill="rgba(128, 10, 10, 1)"></circle><circle r="5" cx="741.73" cy="545.73" fill="rgba(128, 10, 10, 1)"></circle><circle r="5" cx="709.55" cy="738.36" fill="rgba(128, 10, 10, 1)"></circle><circle r="5" cx="820.15" cy="-26.22" fill="rgba(128, 10, 10, 1)"></circle><circle r="5" cx="792.79" cy="26.05" fill="rgba(128, 10, 10, 1)"></circle><circle r="5" cx="801.69" cy="162.97" fill="rgba(128, 10, 10, 1)"></circle><circle r="5" cx="806.38" cy="218.73" fill="rgba(128, 10, 10, 1)"></circle><circle r="5" cx="838.28" cy="332.49" fill="rgba(128, 10, 10, 1)"></circle><circle r="5" cx="807.29" cy="431.37" fill="rgba(128, 10, 10, 1)"></circle><circle r="5" cx="837.94" cy="514.3" fill="rgba(128, 10, 10, 1)"></circle><circle r="5" cx="836.32" cy="628.82" fill="rgba(128, 10, 10, 1)"></circle><circle r="5" cx="809.19" cy="736.99" fill="rgba(128, 10, 10, 1)"></circle><path d="M349.73 721.35L349.73 721.35" stroke="hsl(0, 100%, 65%)" stroke-width="1.5"></path><path d="M349.73 721.35L421.79 728.99" stroke="hsl(0, 100%, 65%)" stroke-width="1.5"></path><path d="M349.73 721.35L343.74 639.03" stroke="hsl(0, 100%, 65%)" stroke-width="1.5"></path><path d="M349.73 721.35L437.97 624.93" stroke="hsl(0, 100%, 65%)" stroke-width="1.5"></path><path d="M410.37 442.05L410.37 442.05" stroke="hsl(0, 100%, 65%)" stroke-width="1.5"></path><path d="M410.37 442.05L432.32 510.45" stroke="hsl(0, 100%, 65%)" stroke-width="1.5"></path><path d="M410.37 442.05L334.31 445.81" stroke="hsl(0, 100%, 65%)" stroke-width="1.5"></path><path d="M520.02 313.71L520.02 313.71" stroke="hsl(0, 100%, 65%)" stroke-width="1.5"></path><path d="M520.02 313.71L617.37 263.16" stroke="hsl(0, 100%, 65%)" stroke-width="1.5"></path><path d="M520.02 313.71L628.58 348.89" stroke="hsl(0, 100%, 65%)" stroke-width="1.5"></path><path d="M520.02 313.71L519.61 450.28" stroke="hsl(0, 100%, 65%)" stroke-width="1.5"></path><path d="M520.02 313.71L410.37 442.05" stroke="hsl(0, 100%, 65%)" stroke-width="1.5"></path><path d="M520.02 313.71L637.67 445.04" stroke="hsl(0, 100%, 65%)" stroke-width="1.5"></path><path d="M520.02 313.71L702.74 342.95" stroke="hsl(0, 100%, 65%)" stroke-width="1.5"></path><path d="M619.39 60.29L619.39 60.29" stroke="hsl(0, 100%, 65%)" stroke-width="1.5"></path><path d="M619.39 60.29L622.31 153.05" stroke="hsl(0, 100%, 65%)" stroke-width="1.5"></path><path d="M619.39 60.29L713.84 68.84" stroke="hsl(0, 100%, 65%)" stroke-width="1.5"></path><path d="M619.39 60.29L732.51 162.63" stroke="hsl(0, 100%, 65%)" stroke-width="1.5"></path><path d="M619.39 60.29L732.28 -65.82" stroke="hsl(0, 100%, 65%)" stroke-width="1.5"></path><path d="M720.57 241.63L720.57 241.63" stroke="hsl(0, 100%, 65%)" stroke-width="1.5"></path><path d="M720.57 241.63L732.51 162.63" stroke="hsl(0, 100%, 65%)" stroke-width="1.5"></path><path d="M720.57 241.63L819.86 223.87" stroke="hsl(0, 100%, 65%)" stroke-width="1.5"></path><path d="M720.57 241.63L702.74 342.95" stroke="hsl(0, 100%, 65%)" stroke-width="1.5"></path><path d="M720.57 241.63L617.37 263.16" stroke="hsl(0, 100%, 65%)" stroke-width="1.5"></path><path d="M720.57 241.63L622.31 153.05" stroke="hsl(0, 100%, 65%)" stroke-width="1.5"></path><path d="M720.57 241.63L798.56 134.03" stroke="hsl(0, 100%, 65%)" stroke-width="1.5"></path><path d="M837.66 -42.4L837.66 -42.4" stroke="hsl(0, 100%, 65%)" stroke-width="1.5"></path><path d="M837.66 -42.4L732.28 -65.82" stroke="hsl(0, 100%, 65%)" stroke-width="1.5"></path><path d="M837.66 -42.4L808.62 65.99" stroke="hsl(0, 100%, 65%)" stroke-width="1.5"></path><path d="M837.66 -42.4L713.84 68.84" stroke="hsl(0, 100%, 65%)" stroke-width="1.5"></path><path d="M837.66 -42.4L798.56 134.03" stroke="hsl(0, 100%, 65%)" stroke-width="1.5"></path><path d="M837.66 -42.4L732.51 162.63" stroke="hsl(0, 100%, 65%)" stroke-width="1.5"></path><path d="M837.66 -42.4L619.39 60.29" stroke="hsl(0, 100%, 65%)" stroke-width="1.5"></path><path d="M-43.65 535.52L-43.65 535.52" stroke="hsl(0, 100%, 65%)" stroke-width="1.5"></path><path d="M-43.65 535.52L61.03 505.62" stroke="hsl(0, 100%, 65%)" stroke-width="1.5"></path><path d="M-43.65 535.52L-52.89 644.58" stroke="hsl(0, 100%, 65%)" stroke-width="1.5"></path><path d="M-43.65 535.52L43.59 615.23" stroke="hsl(0, 100%, 65%)" stroke-width="1.5"></path><path d="M-52.89 644.58L-52.89 644.58" stroke="hsl(0, 100%, 65%)" stroke-width="1.5"></path><path d="M-52.89 644.58L-26.98 730.25" stroke="hsl(0, 100%, 65%)" stroke-width="1.5"></path><path d="M-52.89 644.58L43.59 615.23" stroke="hsl(0, 100%, 65%)" stroke-width="1.5"></path><path d="M-26.98 730.25L-26.98 730.25" stroke="hsl(0, 100%, 65%)" stroke-width="1.5"></path><path d="M-26.98 730.25L61.33 697.95" stroke="hsl(0, 100%, 65%)" stroke-width="1.5"></path><path d="M61.03 505.62L61.03 505.62" stroke="hsl(0, 100%, 65%)" stroke-width="1.5"></path><path d="M61.03 505.62L122.16 549.05" stroke="hsl(0, 100%, 65%)" stroke-width="1.5"></path><path d="M43.59 615.23L43.59 615.23" stroke="hsl(0, 100%, 65%)" stroke-width="1.5"></path><path d="M43.59 615.23L125.86 627.31" stroke="hsl(0, 100%, 65%)" stroke-width="1.5"></path><path d="M43.59 615.23L61.33 697.95" stroke="hsl(0, 100%, 65%)" stroke-width="1.5"></path><path d="M61.33 697.95L61.33 697.95" stroke="hsl(0, 100%, 65%)" stroke-width="1.5"></path><path d="M61.33 697.95L142.95 729.4" stroke="hsl(0, 100%, 65%)" stroke-width="1.5"></path><path d="M122.16 549.05L122.16 549.05" stroke="hsl(0, 100%, 65%)" stroke-width="1.5"></path><path d="M122.16 549.05L125.86 627.31" stroke="hsl(0, 100%, 65%)" stroke-width="1.5"></path><path d="M125.86 627.31L125.86 627.31" stroke="hsl(0, 100%, 65%)" stroke-width="1.5"></path><path d="M125.86 627.31L61.33 697.95" stroke="hsl(0, 100%, 65%)" stroke-width="1.5"></path><path d="M125.86 627.31L142.95 729.4" stroke="hsl(0, 100%, 65%)" stroke-width="1.5"></path><path d="M125.86 627.31L61.03 505.62" stroke="hsl(0, 100%, 65%)" stroke-width="1.5"></path><path d="M125.86 627.31L251.18 541.37" stroke="hsl(0, 100%, 65%)" stroke-width="1.5"></path><path d="M142.95 729.4L142.95 729.4" stroke="hsl(0, 100%, 65%)" stroke-width="1.5"></path><path d="M142.95 729.4L43.59 615.23" stroke="hsl(0, 100%, 65%)" stroke-width="1.5"></path><path d="M251.18 541.37L251.18 541.37" stroke="hsl(0, 100%, 65%)" stroke-width="1.5"></path><path d="M251.18 541.37L342.58 507.2" stroke="hsl(0, 100%, 65%)" stroke-width="1.5"></path><path d="M251.18 541.37L334.31 445.81" stroke="hsl(0, 100%, 65%)" stroke-width="1.5"></path><path d="M251.18 541.37L122.16 549.05" stroke="hsl(0, 100%, 65%)" stroke-width="1.5"></path><path d="M251.18 541.37L343.74 639.03" stroke="hsl(0, 100%, 65%)" stroke-width="1.5"></path><path d="M334.31 445.81L334.31 445.81" stroke="hsl(0, 100%, 65%)" stroke-width="1.5"></path><path d="M334.31 445.81L342.58 507.2" stroke="hsl(0, 100%, 65%)" stroke-width="1.5"></path><path d="M334.31 445.81L432.32 510.45" stroke="hsl(0, 100%, 65%)" stroke-width="1.5"></path><path d="M342.58 507.2L342.58 507.2" stroke="hsl(0, 100%, 65%)" stroke-width="1.5"></path><path d="M342.58 507.2L432.32 510.45" stroke="hsl(0, 100%, 65%)" stroke-width="1.5"></path><path d="M342.58 507.2L410.37 442.05" stroke="hsl(0, 100%, 65%)" stroke-width="1.5"></path><path d="M343.74 639.03L343.74 639.03" stroke="hsl(0, 100%, 65%)" stroke-width="1.5"></path><path d="M343.74 639.03L437.97 624.93" stroke="hsl(0, 100%, 65%)" stroke-width="1.5"></path><path d="M343.74 639.03L421.79 728.99" stroke="hsl(0, 100%, 65%)" stroke-width="1.5"></path><path d="M343.74 639.03L342.58 507.2" stroke="hsl(0, 100%, 65%)" stroke-width="1.5"></path><path d="M432.32 510.45L432.32 510.45" stroke="hsl(0, 100%, 65%)" stroke-width="1.5"></path><path d="M432.32 510.45L516.48 518.63" stroke="hsl(0, 100%, 65%)" stroke-width="1.5"></path><path d="M437.97 624.93L437.97 624.93" stroke="hsl(0, 100%, 65%)" stroke-width="1.5"></path><path d="M437.97 624.93L516.03 646.73" stroke="hsl(0, 100%, 65%)" stroke-width="1.5"></path><path d="M437.97 624.93L421.79 728.99" stroke="hsl(0, 100%, 65%)" stroke-width="1.5"></path><path d="M437.97 624.93L432.32 510.45" stroke="hsl(0, 100%, 65%)" stroke-width="1.5"></path><path d="M437.97 624.93L523.72 713.75" stroke="hsl(0, 100%, 65%)" stroke-width="1.5"></path><path d="M421.79 728.99L421.79 728.99" stroke="hsl(0, 100%, 65%)" stroke-width="1.5"></path><path d="M421.79 728.99L523.72 713.75" stroke="hsl(0, 100%, 65%)" stroke-width="1.5"></path><path d="M519.61 450.28L519.61 450.28" stroke="hsl(0, 100%, 65%)" stroke-width="1.5"></path><path d="M519.61 450.28L516.48 518.63" stroke="hsl(0, 100%, 65%)" stroke-width="1.5"></path><path d="M519.61 450.28L432.32 510.45" stroke="hsl(0, 100%, 65%)" stroke-width="1.5"></path><path d="M519.61 450.28L410.37 442.05" stroke="hsl(0, 100%, 65%)" stroke-width="1.5"></path><path d="M519.61 450.28L637.67 445.04" stroke="hsl(0, 100%, 65%)" stroke-width="1.5"></path><path d="M516.48 518.63L516.48 518.63" stroke="hsl(0, 100%, 65%)" stroke-width="1.5"></path><path d="M516.03 646.73L516.03 646.73" stroke="hsl(0, 100%, 65%)" stroke-width="1.5"></path><path d="M516.03 646.73L523.72 713.75" stroke="hsl(0, 100%, 65%)" stroke-width="1.5"></path><path d="M516.03 646.73L421.79 728.99" stroke="hsl(0, 100%, 65%)" stroke-width="1.5"></path><path d="M516.03 646.73L516.48 518.63" stroke="hsl(0, 100%, 65%)" stroke-width="1.5"></path><path d="M516.03 646.73L646.26 735.1" stroke="hsl(0, 100%, 65%)" stroke-width="1.5"></path><path d="M523.72 713.75L523.72 713.75" stroke="hsl(0, 100%, 65%)" stroke-width="1.5"></path><path d="M523.72 713.75L646.26 735.1" stroke="hsl(0, 100%, 65%)" stroke-width="1.5"></path><path d="M523.72 713.75L349.73 721.35" stroke="hsl(0, 100%, 65%)" stroke-width="1.5"></path><path d="M523.72 713.75L343.74 639.03" stroke="hsl(0, 100%, 65%)" stroke-width="1.5"></path><path d="M622.31 153.05L622.31 153.05" stroke="hsl(0, 100%, 65%)" stroke-width="1.5"></path><path d="M622.31 153.05L617.37 263.16" stroke="hsl(0, 100%, 65%)" stroke-width="1.5"></path><path d="M622.31 153.05L732.51 162.63" stroke="hsl(0, 100%, 65%)" stroke-width="1.5"></path><path d="M622.31 153.05L713.84 68.84" stroke="hsl(0, 100%, 65%)" stroke-width="1.5"></path><path d="M617.37 263.16L617.37 263.16" stroke="hsl(0, 100%, 65%)" stroke-width="1.5"></path><path d="M617.37 263.16L628.58 348.89" stroke="hsl(0, 100%, 65%)" stroke-width="1.5"></path><path d="M628.58 348.89L628.58 348.89" stroke="hsl(0, 100%, 65%)" stroke-width="1.5"></path><path d="M628.58 348.89L702.74 342.95" stroke="hsl(0, 100%, 65%)" stroke-width="1.5"></path><path d="M628.58 348.89L637.67 445.04" stroke="hsl(0, 100%, 65%)" stroke-width="1.5"></path><path d="M628.58 348.89L722.61 428.68" stroke="hsl(0, 100%, 65%)" stroke-width="1.5"></path><path d="M628.58 348.89L720.57 241.63" stroke="hsl(0, 100%, 65%)" stroke-width="1.5"></path><path d="M637.67 445.04L637.67 445.04" stroke="hsl(0, 100%, 65%)" stroke-width="1.5"></path><path d="M637.67 445.04L643.69 511.88" stroke="hsl(0, 100%, 65%)" stroke-width="1.5"></path><path d="M637.67 445.04L722.61 428.68" stroke="hsl(0, 100%, 65%)" stroke-width="1.5"></path><path d="M637.67 445.04L702.74 342.95" stroke="hsl(0, 100%, 65%)" stroke-width="1.5"></path><path d="M643.69 511.88L643.69 511.88" stroke="hsl(0, 100%, 65%)" stroke-width="1.5"></path><path d="M643.69 511.88L722.61 428.68" stroke="hsl(0, 100%, 65%)" stroke-width="1.5"></path><path d="M643.69 511.88L516.48 518.63" stroke="hsl(0, 100%, 65%)" stroke-width="1.5"></path><path d="M646.26 735.1L646.26 735.1" stroke="hsl(0, 100%, 65%)" stroke-width="1.5"></path><path d="M646.26 735.1L725.59 728.44" stroke="hsl(0, 100%, 65%)" stroke-width="1.5"></path><path d="M732.28 -65.82L732.28 -65.82" stroke="hsl(0, 100%, 65%)" stroke-width="1.5"></path><path d="M732.28 -65.82L713.84 68.84" stroke="hsl(0, 100%, 65%)" stroke-width="1.5"></path><path d="M713.84 68.84L713.84 68.84" stroke="hsl(0, 100%, 65%)" stroke-width="1.5"></path><path d="M713.84 68.84L808.62 65.99" stroke="hsl(0, 100%, 65%)" stroke-width="1.5"></path><path d="M713.84 68.84L732.51 162.63" stroke="hsl(0, 100%, 65%)" stroke-width="1.5"></path><path d="M713.84 68.84L798.56 134.03" stroke="hsl(0, 100%, 65%)" stroke-width="1.5"></path><path d="M732.51 162.63L732.51 162.63" stroke="hsl(0, 100%, 65%)" stroke-width="1.5"></path><path d="M732.51 162.63L798.56 134.03" stroke="hsl(0, 100%, 65%)" stroke-width="1.5"></path><path d="M732.51 162.63L819.86 223.87" stroke="hsl(0, 100%, 65%)" stroke-width="1.5"></path><path d="M702.74 342.95L702.74 342.95" stroke="hsl(0, 100%, 65%)" stroke-width="1.5"></path><path d="M702.74 342.95L722.61 428.68" stroke="hsl(0, 100%, 65%)" stroke-width="1.5"></path><path d="M702.74 342.95L617.37 263.16" stroke="hsl(0, 100%, 65%)" stroke-width="1.5"></path><path d="M702.74 342.95L806.9 448.24" stroke="hsl(0, 100%, 65%)" stroke-width="1.5"></path><path d="M722.61 428.68L722.61 428.68" stroke="hsl(0, 100%, 65%)" stroke-width="1.5"></path><path d="M722.61 428.68L806.9 448.24" stroke="hsl(0, 100%, 65%)" stroke-width="1.5"></path><path d="M731.72 627.61L731.72 627.61" stroke="hsl(0, 100%, 65%)" stroke-width="1.5"></path><path d="M731.72 627.61L725.59 728.44" stroke="hsl(0, 100%, 65%)" stroke-width="1.5"></path><path d="M731.72 627.61L839.97 639.88" stroke="hsl(0, 100%, 65%)" stroke-width="1.5"></path><path d="M731.72 627.61L792.05 523.81" stroke="hsl(0, 100%, 65%)" stroke-width="1.5"></path><path d="M731.72 627.61L829.64 708.97" stroke="hsl(0, 100%, 65%)" stroke-width="1.5"></path><path d="M725.59 728.44L725.59 728.44" stroke="hsl(0, 100%, 65%)" stroke-width="1.5"></path><path d="M725.59 728.44L829.64 708.97" stroke="hsl(0, 100%, 65%)" stroke-width="1.5"></path><path d="M808.62 65.99L808.62 65.99" stroke="hsl(0, 100%, 65%)" stroke-width="1.5"></path><path d="M808.62 65.99L798.56 134.03" stroke="hsl(0, 100%, 65%)" stroke-width="1.5"></path><path d="M798.56 134.03L798.56 134.03" stroke="hsl(0, 100%, 65%)" stroke-width="1.5"></path><path d="M819.86 223.87L819.86 223.87" stroke="hsl(0, 100%, 65%)" stroke-width="1.5"></path><path d="M819.86 223.87L798.56 134.03" stroke="hsl(0, 100%, 65%)" stroke-width="1.5"></path><path d="M806.9 448.24L806.9 448.24" stroke="hsl(0, 100%, 65%)" stroke-width="1.5"></path><path d="M806.9 448.24L792.05 523.81" stroke="hsl(0, 100%, 65%)" stroke-width="1.5"></path><path d="M806.9 448.24L637.67 445.04" stroke="hsl(0, 100%, 65%)" stroke-width="1.5"></path><path d="M806.9 448.24L643.69 511.88" stroke="hsl(0, 100%, 65%)" stroke-width="1.5"></path><path d="M792.05 523.81L792.05 523.81" stroke="hsl(0, 100%, 65%)" stroke-width="1.5"></path><path d="M792.05 523.81L722.61 428.68" stroke="hsl(0, 100%, 65%)" stroke-width="1.5"></path><path d="M792.05 523.81L839.97 639.88" stroke="hsl(0, 100%, 65%)" stroke-width="1.5"></path><path d="M792.05 523.81L643.69 511.88" stroke="hsl(0, 100%, 65%)" stroke-width="1.5"></path><path d="M839.97 639.88L839.97 639.88" stroke="hsl(0, 100%, 65%)" stroke-width="1.5"></path><path d="M839.97 639.88L829.64 708.97" stroke="hsl(0, 100%, 65%)" stroke-width="1.5"></path><path d="M839.97 639.88L725.59 728.44" stroke="hsl(0, 100%, 65%)" stroke-width="1.5"></path><path d="M839.97 639.88L806.9 448.24" stroke="hsl(0, 100%, 65%)" stroke-width="1.5"></path><path d="M829.64 708.97L829.64 708.97" stroke="hsl(0, 100%, 65%)" stroke-width="1.5"></path><circle r="25" cx="349.73" cy="721.35" fill="url(#SvgjsRadialGradient1145)"></circle><circle r="25" cx="410.37" cy="442.05" fill="url(#SvgjsRadialGradient1145)"></circle><circle r="25" cx="520.02" cy="313.71" fill="url(#SvgjsRadialGradient1145)"></circle><circle r="25" cx="619.39" cy="60.29" fill="url(#SvgjsRadialGradient1145)"></circle><circle r="25" cx="720.57" cy="241.63" fill="url(#SvgjsRadialGradient1145)"></circle><circle r="25" cx="837.66" cy="-42.4" fill="url(#SvgjsRadialGradient1145)"></circle><circle r="5" cx="-43.65" cy="535.52" fill="#ff8080"></circle><circle r="5" cx="-52.89" cy="644.58" fill="#ff8080"></circle><circle r="5" cx="-26.98" cy="730.25" fill="#ff8080"></circle><circle r="5" cx="61.03" cy="505.62" fill="#ff8080"></circle><circle r="5" cx="43.59" cy="615.23" fill="#ff8080"></circle><circle r="5" cx="61.33" cy="697.95" fill="#ff8080"></circle><circle r="5" cx="122.16" cy="549.05" fill="#ff8080"></circle><circle r="5" cx="125.86" cy="627.31" fill="#ff8080"></circle><circle r="5" cx="142.95" cy="729.4" fill="#ff8080"></circle><circle r="5" cx="251.18" cy="541.37" fill="#ff8080"></circle><circle r="5" cx="334.31" cy="445.81" fill="#ff8080"></circle><circle r="5" cx="342.58" cy="507.2" fill="#ff8080"></circle><circle r="5" cx="343.74" cy="639.03" fill="#ff8080"></circle><circle r="5" cx="432.32" cy="510.45" fill="#ff8080"></circle><circle r="5" cx="437.97" cy="624.93" fill="#ff8080"></circle><circle r="5" cx="421.79" cy="728.99" fill="#ff8080"></circle><circle r="5" cx="519.61" cy="450.28" fill="#ff8080"></circle><circle r="5" cx="516.48" cy="518.63" fill="#ff8080"></circle><circle r="5" cx="516.03" cy="646.73" fill="#ff8080"></circle><circle r="5" cx="523.72" cy="713.75" fill="#ff8080"></circle><circle r="5" cx="622.31" cy="153.05" fill="#ff8080"></circle><circle r="5" cx="617.37" cy="263.16" fill="#ff8080"></circle><circle r="5" cx="628.58" cy="348.89" fill="#ff8080"></circle><circle r="5" cx="637.67" cy="445.04" fill="#ff8080"></circle><circle r="5" cx="643.69" cy="511.88" fill="#ff8080"></circle><circle r="5" cx="646.26" cy="735.1" fill="#ff8080"></circle><circle r="5" cx="732.28" cy="-65.82" fill="#ff8080"></circle><circle r="5" cx="713.84" cy="68.84" fill="#ff8080"></circle><circle r="5" cx="732.51" cy="162.63" fill="#ff8080"></circle><circle r="5" cx="702.74" cy="342.95" fill="#ff8080"></circle><circle r="5" cx="722.61" cy="428.68" fill="#ff8080"></circle><circle r="5" cx="731.72" cy="627.61" fill="#ff8080"></circle><circle r="5" cx="725.59" cy="728.44" fill="#ff8080"></circle><circle r="5" cx="808.62" cy="65.99" fill="#ff8080"></circle><circle r="5" cx="798.56" cy="134.03" fill="#ff8080"></circle><circle r="5" cx="819.86" cy="223.87" fill="#ff8080"></circle><circle r="5" cx="806.9" cy="448.24" fill="#ff8080"></circle><circle r="5" cx="792.05" cy="523.81" fill="#ff8080"></circle><circle r="5" cx="839.97" cy="639.88" fill="#ff8080"></circle><circle r="5" cx="829.64" cy="708.97" fill="#ff8080"></circle></g><defs><mask id="SvgjsMask1144"><rect width="768" height="600" fill="#ffffff"></rect></mask><radialGradient id="SvgjsRadialGradient1145"><stop stop-color="#ffffff" offset="0.1"></stop><stop stop-color="rgba(255, 0, 0, 1)" offset="0.2"></stop><stop stop-color="rgba(255, 0, 0, 0)" offset="1"></stop></radialGradient></defs></svg>