<svg xmlns="http://www.w3.org/2000/svg" version="1.1" xmlns:xlink="http://www.w3.org/1999/xlink" xmlns:svgjs="http://svgjs.com/svgjs" width="1200" height="600" preserveAspectRatio="none" viewBox="0 0 1200 600"><g mask="url(&quot;#SvgjsMask1022&quot;)" fill="none"><rect width="1200" height="600" x="0" y="0" fill="rgba(0, 0, 0, 1)"></rect><path d="M-79.67 498.06L-79.67 498.06" stroke="rgba(128, 10, 10, 1)" stroke-width="1.5"></path><path d="M-79.67 498.06L42.48 530.96" stroke="rgba(128, 10, 10, 1)" stroke-width="1.5"></path><path d="M-79.67 498.06L48.06 380.23" stroke="rgba(128, 10, 10, 1)" stroke-width="1.5"></path><path d="M-79.67 498.06L-111.16 692.66" stroke="rgba(128, 10, 10, 1)" stroke-width="1.5"></path><path d="M-79.67 498.06L87.46 677.4" stroke="rgba(128, 10, 10, 1)" stroke-width="1.5"></path><path d="M-79.67 498.06L218.36 489.36" stroke="rgba(128, 10, 10, 1)" stroke-width="1.5"></path><path d="M-79.67 498.06L251.92 405.52" stroke="rgba(128, 10, 10, 1)" stroke-width="1.5"></path><path d="M-111.16 692.66L-111.16 692.66" stroke="rgba(128, 10, 10, 1)" stroke-width="1.5"></path><path d="M-111.16 692.66L87.46 677.4" stroke="rgba(128, 10, 10, 1)" stroke-width="1.5"></path><path d="M-111.16 692.66L42.48 530.96" stroke="rgba(128, 10, 10, 1)" stroke-width="1.5"></path><path d="M-111.16 692.66L212.87 690.64" stroke="rgba(128, 10, 10, 1)" stroke-width="1.5"></path><path d="M-111.16 692.66L48.06 380.23" stroke="rgba(128, 10, 10, 1)" stroke-width="1.5"></path><path d="M48.06 380.23L48.06 380.23" stroke="rgba(128, 10, 10, 1)" stroke-width="1.5"></path><path d="M48.06 380.23L42.48 530.96" stroke="rgba(128, 10, 10, 1)" stroke-width="1.5"></path><path d="M48.06 380.23L218.36 489.36" stroke="rgba(128, 10, 10, 1)" stroke-width="1.5"></path><path d="M48.06 380.23L251.92 405.52" stroke="rgba(128, 10, 10, 1)" stroke-width="1.5"></path><path d="M48.06 380.23L87.46 677.4" stroke="rgba(128, 10, 10, 1)" stroke-width="1.5"></path><path d="M42.48 530.96L42.48 530.96" stroke="rgba(128, 10, 10, 1)" stroke-width="1.5"></path><path d="M42.48 530.96L87.46 677.4" stroke="rgba(128, 10, 10, 1)" stroke-width="1.5"></path><path d="M42.48 530.96L218.36 489.36" stroke="rgba(128, 10, 10, 1)" stroke-width="1.5"></path><path d="M42.48 530.96L212.87 690.64" stroke="rgba(128, 10, 10, 1)" stroke-width="1.5"></path><path d="M87.46 677.4L87.46 677.4" stroke="rgba(128, 10, 10, 1)" stroke-width="1.5"></path><path d="M87.46 677.4L212.87 690.64" stroke="rgba(128, 10, 10, 1)" stroke-width="1.5"></path><path d="M87.46 677.4L218.36 489.36" stroke="rgba(128, 10, 10, 1)" stroke-width="1.5"></path><path d="M251.92 405.52L251.92 405.52" stroke="rgba(128, 10, 10, 1)" stroke-width="1.5"></path><path d="M251.92 405.52L218.36 489.36" stroke="rgba(128, 10, 10, 1)" stroke-width="1.5"></path><path d="M251.92 405.52L377.43 358.05" stroke="rgba(128, 10, 10, 1)" stroke-width="1.5"></path><path d="M251.92 405.52L371.78 496.01" stroke="rgba(128, 10, 10, 1)" stroke-width="1.5"></path><path d="M251.92 405.52L42.48 530.96" stroke="rgba(128, 10, 10, 1)" stroke-width="1.5"></path><path d="M251.92 405.52L509.46 379.01" stroke="rgba(128, 10, 10, 1)" stroke-width="1.5"></path><path d="M218.36 489.36L218.36 489.36" stroke="rgba(128, 10, 10, 1)" stroke-width="1.5"></path><path d="M218.36 489.36L371.78 496.01" stroke="rgba(128, 10, 10, 1)" stroke-width="1.5"></path><path d="M212.87 690.64L212.87 690.64" stroke="rgba(128, 10, 10, 1)" stroke-width="1.5"></path><path d="M212.87 690.64L371.79 691.17" stroke="rgba(128, 10, 10, 1)" stroke-width="1.5"></path><path d="M212.87 690.64L218.36 489.36" stroke="rgba(128, 10, 10, 1)" stroke-width="1.5"></path><path d="M377.43 358.05L377.43 358.05" stroke="rgba(128, 10, 10, 1)" stroke-width="1.5"></path><path d="M377.43 358.05L509.46 379.01" stroke="rgba(128, 10, 10, 1)" stroke-width="1.5"></path><path d="M377.43 358.05L371.78 496.01" stroke="rgba(128, 10, 10, 1)" stroke-width="1.5"></path><path d="M377.43 358.05L218.36 489.36" stroke="rgba(128, 10, 10, 1)" stroke-width="1.5"></path><path d="M377.43 358.05L641.55 341.94" stroke="rgba(128, 10, 10, 1)" stroke-width="1.5"></path><path d="M377.43 358.05L643.92 497.9" stroke="rgba(128, 10, 10, 1)" stroke-width="1.5"></path><path d="M371.78 496.01L371.78 496.01" stroke="rgba(128, 10, 10, 1)" stroke-width="1.5"></path><path d="M371.78 496.01L509.46 379.01" stroke="rgba(128, 10, 10, 1)" stroke-width="1.5"></path><path d="M371.79 691.17L371.79 691.17" stroke="rgba(128, 10, 10, 1)" stroke-width="1.5"></path><path d="M371.79 691.17L562.15 674.79" stroke="rgba(128, 10, 10, 1)" stroke-width="1.5"></path><path d="M371.79 691.17L371.78 496.01" stroke="rgba(128, 10, 10, 1)" stroke-width="1.5"></path><path d="M371.79 691.17L218.36 489.36" stroke="rgba(128, 10, 10, 1)" stroke-width="1.5"></path><path d="M371.79 691.17L640.81 644.06" stroke="rgba(128, 10, 10, 1)" stroke-width="1.5"></path><path d="M371.79 691.17L87.46 677.4" stroke="rgba(128, 10, 10, 1)" stroke-width="1.5"></path><path d="M509.46 379.01L509.46 379.01" stroke="rgba(128, 10, 10, 1)" stroke-width="1.5"></path><path d="M509.46 379.01L641.55 341.94" stroke="rgba(128, 10, 10, 1)" stroke-width="1.5"></path><path d="M509.46 379.01L643.92 497.9" stroke="rgba(128, 10, 10, 1)" stroke-width="1.5"></path><path d="M562.15 674.79L562.15 674.79" stroke="rgba(128, 10, 10, 1)" stroke-width="1.5"></path><path d="M562.15 674.79L640.81 644.06" stroke="rgba(128, 10, 10, 1)" stroke-width="1.5"></path><path d="M562.15 674.79L643.92 497.9" stroke="rgba(128, 10, 10, 1)" stroke-width="1.5"></path><path d="M677.58 210.48L677.58 210.48" stroke="rgba(128, 10, 10, 1)" stroke-width="1.5"></path><path d="M677.58 210.48L641.55 341.94" stroke="rgba(128, 10, 10, 1)" stroke-width="1.5"></path><path d="M677.58 210.48L820.95 189.03" stroke="rgba(128, 10, 10, 1)" stroke-width="1.5"></path><path d="M677.58 210.48L796.22 60.34" stroke="rgba(128, 10, 10, 1)" stroke-width="1.5"></path><path d="M677.58 210.48L857.92 340" stroke="rgba(128, 10, 10, 1)" stroke-width="1.5"></path><path d="M677.58 210.48L509.46 379.01" stroke="rgba(128, 10, 10, 1)" stroke-width="1.5"></path><path d="M677.58 210.48L643.92 497.9" stroke="rgba(128, 10, 10, 1)" stroke-width="1.5"></path><path d="M641.55 341.94L641.55 341.94" stroke="rgba(128, 10, 10, 1)" stroke-width="1.5"></path><path d="M641.55 341.94L643.92 497.9" stroke="rgba(128, 10, 10, 1)" stroke-width="1.5"></path><path d="M641.55 341.94L857.92 340" stroke="rgba(128, 10, 10, 1)" stroke-width="1.5"></path><path d="M641.55 341.94L820.95 189.03" stroke="rgba(128, 10, 10, 1)" stroke-width="1.5"></path><path d="M641.55 341.94L846.86 488.46" stroke="rgba(128, 10, 10, 1)" stroke-width="1.5"></path><path d="M643.92 497.9L643.92 497.9" stroke="rgba(128, 10, 10, 1)" stroke-width="1.5"></path><path d="M643.92 497.9L640.81 644.06" stroke="rgba(128, 10, 10, 1)" stroke-width="1.5"></path><path d="M640.81 644.06L640.81 644.06" stroke="rgba(128, 10, 10, 1)" stroke-width="1.5"></path><path d="M640.81 644.06L797.95 693.31" stroke="rgba(128, 10, 10, 1)" stroke-width="1.5"></path><path d="M640.81 644.06L846.86 488.46" stroke="rgba(128, 10, 10, 1)" stroke-width="1.5"></path><path d="M792.84 -107.49L792.84 -107.49" stroke="rgba(128, 10, 10, 1)" stroke-width="1.5"></path><path d="M792.84 -107.49L796.22 60.34" stroke="rgba(128, 10, 10, 1)" stroke-width="1.5"></path><path d="M792.84 -107.49L962.85 -74.18" stroke="rgba(128, 10, 10, 1)" stroke-width="1.5"></path><path d="M792.84 -107.49L1011.55 74.93" stroke="rgba(128, 10, 10, 1)" stroke-width="1.5"></path><path d="M792.84 -107.49L820.95 189.03" stroke="rgba(128, 10, 10, 1)" stroke-width="1.5"></path><path d="M792.84 -107.49L677.58 210.48" stroke="rgba(128, 10, 10, 1)" stroke-width="1.5"></path><path d="M796.22 60.34L796.22 60.34" stroke="rgba(128, 10, 10, 1)" stroke-width="1.5"></path><path d="M796.22 60.34L820.95 189.03" stroke="rgba(128, 10, 10, 1)" stroke-width="1.5"></path><path d="M796.22 60.34L962.85 -74.18" stroke="rgba(128, 10, 10, 1)" stroke-width="1.5"></path><path d="M820.95 189.03L820.95 189.03" stroke="rgba(128, 10, 10, 1)" stroke-width="1.5"></path><path d="M820.95 189.03L857.92 340" stroke="rgba(128, 10, 10, 1)" stroke-width="1.5"></path><path d="M820.95 189.03L984.02 240.14" stroke="rgba(128, 10, 10, 1)" stroke-width="1.5"></path><path d="M820.95 189.03L1011.55 74.93" stroke="rgba(128, 10, 10, 1)" stroke-width="1.5"></path><path d="M857.92 340L857.92 340" stroke="rgba(128, 10, 10, 1)" stroke-width="1.5"></path><path d="M857.92 340L945.14 410.51" stroke="rgba(128, 10, 10, 1)" stroke-width="1.5"></path><path d="M857.92 340L846.86 488.46" stroke="rgba(128, 10, 10, 1)" stroke-width="1.5"></path><path d="M846.86 488.46L846.86 488.46" stroke="rgba(128, 10, 10, 1)" stroke-width="1.5"></path><path d="M846.86 488.46L945.14 410.51" stroke="rgba(128, 10, 10, 1)" stroke-width="1.5"></path><path d="M846.86 488.46L1000.43 547.78" stroke="rgba(128, 10, 10, 1)" stroke-width="1.5"></path><path d="M846.86 488.46L643.92 497.9" stroke="rgba(128, 10, 10, 1)" stroke-width="1.5"></path><path d="M846.86 488.46L797.95 693.31" stroke="rgba(128, 10, 10, 1)" stroke-width="1.5"></path><path d="M797.95 693.31L797.95 693.31" stroke="rgba(128, 10, 10, 1)" stroke-width="1.5"></path><path d="M797.95 693.31L987.7 698.88" stroke="rgba(128, 10, 10, 1)" stroke-width="1.5"></path><path d="M797.95 693.31L562.15 674.79" stroke="rgba(128, 10, 10, 1)" stroke-width="1.5"></path><path d="M797.95 693.31L643.92 497.9" stroke="rgba(128, 10, 10, 1)" stroke-width="1.5"></path><path d="M797.95 693.31L1000.43 547.78" stroke="rgba(128, 10, 10, 1)" stroke-width="1.5"></path><path d="M962.85 -74.18L962.85 -74.18" stroke="rgba(128, 10, 10, 1)" stroke-width="1.5"></path><path d="M962.85 -74.18L1011.55 74.93" stroke="rgba(128, 10, 10, 1)" stroke-width="1.5"></path><path d="M962.85 -74.18L1142.47 -59.18" stroke="rgba(128, 10, 10, 1)" stroke-width="1.5"></path><path d="M962.85 -74.18L1128.94 53.52" stroke="rgba(128, 10, 10, 1)" stroke-width="1.5"></path><path d="M1011.55 74.93L1011.55 74.93" stroke="rgba(128, 10, 10, 1)" stroke-width="1.5"></path><path d="M1011.55 74.93L1128.94 53.52" stroke="rgba(128, 10, 10, 1)" stroke-width="1.5"></path><path d="M984.02 240.14L984.02 240.14" stroke="rgba(128, 10, 10, 1)" stroke-width="1.5"></path><path d="M984.02 240.14L1100.67 226.82" stroke="rgba(128, 10, 10, 1)" stroke-width="1.5"></path><path d="M984.02 240.14L857.92 340" stroke="rgba(128, 10, 10, 1)" stroke-width="1.5"></path><path d="M984.02 240.14L1095.91 364.72" stroke="rgba(128, 10, 10, 1)" stroke-width="1.5"></path><path d="M984.02 240.14L1011.55 74.93" stroke="rgba(128, 10, 10, 1)" stroke-width="1.5"></path><path d="M945.14 410.51L945.14 410.51" stroke="rgba(128, 10, 10, 1)" stroke-width="1.5"></path><path d="M945.14 410.51L1000.43 547.78" stroke="rgba(128, 10, 10, 1)" stroke-width="1.5"></path><path d="M945.14 410.51L1095.91 364.72" stroke="rgba(128, 10, 10, 1)" stroke-width="1.5"></path><path d="M945.14 410.51L1100.03 490.78" stroke="rgba(128, 10, 10, 1)" stroke-width="1.5"></path><path d="M945.14 410.51L984.02 240.14" stroke="rgba(128, 10, 10, 1)" stroke-width="1.5"></path><path d="M1000.43 547.78L1000.43 547.78" stroke="rgba(128, 10, 10, 1)" stroke-width="1.5"></path><path d="M1000.43 547.78L1100.03 490.78" stroke="rgba(128, 10, 10, 1)" stroke-width="1.5"></path><path d="M1000.43 547.78L1111.85 648.98" stroke="rgba(128, 10, 10, 1)" stroke-width="1.5"></path><path d="M1000.43 547.78L987.7 698.88" stroke="rgba(128, 10, 10, 1)" stroke-width="1.5"></path><path d="M987.7 698.88L987.7 698.88" stroke="rgba(128, 10, 10, 1)" stroke-width="1.5"></path><path d="M987.7 698.88L1111.85 648.98" stroke="rgba(128, 10, 10, 1)" stroke-width="1.5"></path><path d="M1142.47 -59.18L1142.47 -59.18" stroke="rgba(128, 10, 10, 1)" stroke-width="1.5"></path><path d="M1142.47 -59.18L1238.51 -74.77" stroke="rgba(128, 10, 10, 1)" stroke-width="1.5"></path><path d="M1142.47 -59.18L1128.94 53.52" stroke="rgba(128, 10, 10, 1)" stroke-width="1.5"></path><path d="M1142.47 -59.18L1258.42 59.06" stroke="rgba(128, 10, 10, 1)" stroke-width="1.5"></path><path d="M1128.94 53.52L1128.94 53.52" stroke="rgba(128, 10, 10, 1)" stroke-width="1.5"></path><path d="M1128.94 53.52L1258.42 59.06" stroke="rgba(128, 10, 10, 1)" stroke-width="1.5"></path><path d="M1128.94 53.52L1238.51 -74.77" stroke="rgba(128, 10, 10, 1)" stroke-width="1.5"></path><path d="M1100.67 226.82L1100.67 226.82" stroke="rgba(128, 10, 10, 1)" stroke-width="1.5"></path><path d="M1100.67 226.82L1095.91 364.72" stroke="rgba(128, 10, 10, 1)" stroke-width="1.5"></path><path d="M1095.91 364.72L1095.91 364.72" stroke="rgba(128, 10, 10, 1)" stroke-width="1.5"></path><path d="M1095.91 364.72L1100.03 490.78" stroke="rgba(128, 10, 10, 1)" stroke-width="1.5"></path><path d="M1100.03 490.78L1100.03 490.78" stroke="rgba(128, 10, 10, 1)" stroke-width="1.5"></path><path d="M1100.03 490.78L1111.85 648.98" stroke="rgba(128, 10, 10, 1)" stroke-width="1.5"></path><path d="M1100.03 490.78L1304.45 514.13" stroke="rgba(128, 10, 10, 1)" stroke-width="1.5"></path><path d="M1100.03 490.78L1244.81 642.2" stroke="rgba(128, 10, 10, 1)" stroke-width="1.5"></path><path d="M1111.85 648.98L1111.85 648.98" stroke="rgba(128, 10, 10, 1)" stroke-width="1.5"></path><path d="M1111.85 648.98L1244.81 642.2" stroke="rgba(128, 10, 10, 1)" stroke-width="1.5"></path><path d="M1111.85 648.98L1304.45 514.13" stroke="rgba(128, 10, 10, 1)" stroke-width="1.5"></path><path d="M1111.85 648.98L1095.91 364.72" stroke="rgba(128, 10, 10, 1)" stroke-width="1.5"></path><path d="M1238.51 -74.77L1238.51 -74.77" stroke="rgba(128, 10, 10, 1)" stroke-width="1.5"></path><path d="M1238.51 -74.77L1258.42 59.06" stroke="rgba(128, 10, 10, 1)" stroke-width="1.5"></path><path d="M1258.42 59.06L1258.42 59.06" stroke="rgba(128, 10, 10, 1)" stroke-width="1.5"></path><path d="M1307.01 255.34L1307.01 255.34" stroke="rgba(128, 10, 10, 1)" stroke-width="1.5"></path><path d="M1307.01 255.34L1308.53 360.74" stroke="rgba(128, 10, 10, 1)" stroke-width="1.5"></path><path d="M1307.01 255.34L1258.42 59.06" stroke="rgba(128, 10, 10, 1)" stroke-width="1.5"></path><path d="M1307.01 255.34L1100.67 226.82" stroke="rgba(128, 10, 10, 1)" stroke-width="1.5"></path><path d="M1307.01 255.34L1095.91 364.72" stroke="rgba(128, 10, 10, 1)" stroke-width="1.5"></path><path d="M1307.01 255.34L1304.45 514.13" stroke="rgba(128, 10, 10, 1)" stroke-width="1.5"></path><path d="M1307.01 255.34L1128.94 53.52" stroke="rgba(128, 10, 10, 1)" stroke-width="1.5"></path><path d="M1308.53 360.74L1308.53 360.74" stroke="rgba(128, 10, 10, 1)" stroke-width="1.5"></path><path d="M1308.53 360.74L1304.45 514.13" stroke="rgba(128, 10, 10, 1)" stroke-width="1.5"></path><path d="M1304.45 514.13L1304.45 514.13" stroke="rgba(128, 10, 10, 1)" stroke-width="1.5"></path><path d="M1304.45 514.13L1244.81 642.2" stroke="rgba(128, 10, 10, 1)" stroke-width="1.5"></path><path d="M1244.81 642.2L1244.81 642.2" stroke="rgba(128, 10, 10, 1)" stroke-width="1.5"></path><circle r="5" cx="-79.67" cy="498.06" fill="rgba(128, 10, 10, 1)"></circle><circle r="5" cx="-111.16" cy="692.66" fill="rgba(128, 10, 10, 1)"></circle><circle r="5" cx="48.06" cy="380.23" fill="rgba(128, 10, 10, 1)"></circle><circle r="5" cx="42.48" cy="530.96" fill="rgba(128, 10, 10, 1)"></circle><circle r="5" cx="87.46" cy="677.4" fill="rgba(128, 10, 10, 1)"></circle><circle r="5" cx="251.92" cy="405.52" fill="rgba(128, 10, 10, 1)"></circle><circle r="5" cx="218.36" cy="489.36" fill="rgba(128, 10, 10, 1)"></circle><circle r="5" cx="212.87" cy="690.64" fill="rgba(128, 10, 10, 1)"></circle><circle r="5" cx="377.43" cy="358.05" fill="rgba(128, 10, 10, 1)"></circle><circle r="5" cx="371.78" cy="496.01" fill="rgba(128, 10, 10, 1)"></circle><circle r="5" cx="371.79" cy="691.17" fill="rgba(128, 10, 10, 1)"></circle><circle r="5" cx="509.46" cy="379.01" fill="rgba(128, 10, 10, 1)"></circle><circle r="5" cx="562.15" cy="674.79" fill="rgba(128, 10, 10, 1)"></circle><circle r="5" cx="677.58" cy="210.48" fill="rgba(128, 10, 10, 1)"></circle><circle r="5" cx="641.55" cy="341.94" fill="rgba(128, 10, 10, 1)"></circle><circle r="5" cx="643.92" cy="497.9" fill="rgba(128, 10, 10, 1)"></circle><circle r="5" cx="640.81" cy="644.06" fill="rgba(128, 10, 10, 1)"></circle><circle r="5" cx="792.84" cy="-107.49" fill="rgba(128, 10, 10, 1)"></circle><circle r="5" cx="796.22" cy="60.34" fill="rgba(128, 10, 10, 1)"></circle><circle r="5" cx="820.95" cy="189.03" fill="rgba(128, 10, 10, 1)"></circle><circle r="5" cx="857.92" cy="340" fill="rgba(128, 10, 10, 1)"></circle><circle r="5" cx="846.86" cy="488.46" fill="rgba(128, 10, 10, 1)"></circle><circle r="5" cx="797.95" cy="693.31" fill="rgba(128, 10, 10, 1)"></circle><circle r="5" cx="962.85" cy="-74.18" fill="rgba(128, 10, 10, 1)"></circle><circle r="5" cx="1011.55" cy="74.93" fill="rgba(128, 10, 10, 1)"></circle><circle r="5" cx="984.02" cy="240.14" fill="rgba(128, 10, 10, 1)"></circle><circle r="5" cx="945.14" cy="410.51" fill="rgba(128, 10, 10, 1)"></circle><circle r="5" cx="1000.43" cy="547.78" fill="rgba(128, 10, 10, 1)"></circle><circle r="5" cx="987.7" cy="698.88" fill="rgba(128, 10, 10, 1)"></circle><circle r="5" cx="1142.47" cy="-59.18" fill="rgba(128, 10, 10, 1)"></circle><circle r="5" cx="1128.94" cy="53.52" fill="rgba(128, 10, 10, 1)"></circle><circle r="5" cx="1100.67" cy="226.82" fill="rgba(128, 10, 10, 1)"></circle><circle r="5" cx="1095.91" cy="364.72" fill="rgba(128, 10, 10, 1)"></circle><circle r="5" cx="1100.03" cy="490.78" fill="rgba(128, 10, 10, 1)"></circle><circle r="5" cx="1111.85" cy="648.98" fill="rgba(128, 10, 10, 1)"></circle><circle r="5" cx="1238.51" cy="-74.77" fill="rgba(128, 10, 10, 1)"></circle><circle r="5" cx="1258.42" cy="59.06" fill="rgba(128, 10, 10, 1)"></circle><circle r="5" cx="1307.01" cy="255.34" fill="rgba(128, 10, 10, 1)"></circle><circle r="5" cx="1308.53" cy="360.74" fill="rgba(128, 10, 10, 1)"></circle><circle r="5" cx="1304.45" cy="514.13" fill="rgba(128, 10, 10, 1)"></circle><circle r="5" cx="1244.81" cy="642.2" fill="rgba(128, 10, 10, 1)"></circle><path d="M-89.04 559.7L-89.04 559.7" stroke="hsl(0, 100%, 65%)" stroke-width="1.5"></path><path d="M-89.04 559.7L-74.46 697.37" stroke="hsl(0, 100%, 65%)" stroke-width="1.5"></path><path d="M-89.04 559.7L104.39 543.53" stroke="hsl(0, 100%, 65%)" stroke-width="1.5"></path><path d="M-89.04 559.7L92.02 648.34" stroke="hsl(0, 100%, 65%)" stroke-width="1.5"></path><path d="M-89.04 559.7L193.72 659.17" stroke="hsl(0, 100%, 65%)" stroke-width="1.5"></path><path d="M-89.04 559.7L236.9 519.72" stroke="hsl(0, 100%, 65%)" stroke-width="1.5"></path><path d="M193.72 659.17L193.72 659.17" stroke="hsl(0, 100%, 65%)" stroke-width="1.5"></path><path d="M193.72 659.17L92.02 648.34" stroke="hsl(0, 100%, 65%)" stroke-width="1.5"></path><path d="M193.72 659.17L236.9 519.72" stroke="hsl(0, 100%, 65%)" stroke-width="1.5"></path><path d="M193.72 659.17L104.39 543.53" stroke="hsl(0, 100%, 65%)" stroke-width="1.5"></path><path d="M193.72 659.17L350.56 688.8" stroke="hsl(0, 100%, 65%)" stroke-width="1.5"></path><path d="M193.72 659.17L364.02 488.55" stroke="hsl(0, 100%, 65%)" stroke-width="1.5"></path><path d="M558.75 506.87L558.75 506.87" stroke="hsl(0, 100%, 65%)" stroke-width="1.5"></path><path d="M558.75 506.87L676.55 488.3" stroke="hsl(0, 100%, 65%)" stroke-width="1.5"></path><path d="M558.75 506.87L696.13 397.54" stroke="hsl(0, 100%, 65%)" stroke-width="1.5"></path><path d="M558.75 506.87L519.04 688.27" stroke="hsl(0, 100%, 65%)" stroke-width="1.5"></path><path d="M558.75 506.87L364.02 488.55" stroke="hsl(0, 100%, 65%)" stroke-width="1.5"></path><path d="M558.75 506.87L666.16 708.4" stroke="hsl(0, 100%, 65%)" stroke-width="1.5"></path><path d="M558.75 506.87L831.88 495.43" stroke="hsl(0, 100%, 65%)" stroke-width="1.5"></path><path d="M519.04 688.27L519.04 688.27" stroke="hsl(0, 100%, 65%)" stroke-width="1.5"></path><path d="M519.04 688.27L666.16 708.4" stroke="hsl(0, 100%, 65%)" stroke-width="1.5"></path><path d="M519.04 688.27L350.56 688.8" stroke="hsl(0, 100%, 65%)" stroke-width="1.5"></path><path d="M519.04 688.27L364.02 488.55" stroke="hsl(0, 100%, 65%)" stroke-width="1.5"></path><path d="M812.9 352.67L812.9 352.67" stroke="hsl(0, 100%, 65%)" stroke-width="1.5"></path><path d="M812.9 352.67L696.13 397.54" stroke="hsl(0, 100%, 65%)" stroke-width="1.5"></path><path d="M812.9 352.67L831.88 495.43" stroke="hsl(0, 100%, 65%)" stroke-width="1.5"></path><path d="M812.9 352.67L676.55 488.3" stroke="hsl(0, 100%, 65%)" stroke-width="1.5"></path><path d="M812.9 352.67L948.29 510.1" stroke="hsl(0, 100%, 65%)" stroke-width="1.5"></path><path d="M988.14 80.07L988.14 80.07" stroke="hsl(0, 100%, 65%)" stroke-width="1.5"></path><path d="M988.14 80.07L1100.97 38.39" stroke="hsl(0, 100%, 65%)" stroke-width="1.5"></path><path d="M988.14 80.07L973.31 203.14" stroke="hsl(0, 100%, 65%)" stroke-width="1.5"></path><path d="M988.14 80.07L1119.7 241.36" stroke="hsl(0, 100%, 65%)" stroke-width="1.5"></path><path d="M988.14 80.07L1152.42 -90.47" stroke="hsl(0, 100%, 65%)" stroke-width="1.5"></path><path d="M988.14 80.07L1237.98 238.8" stroke="hsl(0, 100%, 65%)" stroke-width="1.5"></path><path d="M973.31 203.14L973.31 203.14" stroke="hsl(0, 100%, 65%)" stroke-width="1.5"></path><path d="M973.31 203.14L1119.7 241.36" stroke="hsl(0, 100%, 65%)" stroke-width="1.5"></path><path d="M948.29 510.1L948.29 510.1" stroke="hsl(0, 100%, 65%)" stroke-width="1.5"></path><path d="M948.29 510.1L831.88 495.43" stroke="hsl(0, 100%, 65%)" stroke-width="1.5"></path><path d="M948.29 510.1L975.96 685.66" stroke="hsl(0, 100%, 65%)" stroke-width="1.5"></path><path d="M1100.97 38.39L1100.97 38.39" stroke="hsl(0, 100%, 65%)" stroke-width="1.5"></path><path d="M1100.97 38.39L1152.42 -90.47" stroke="hsl(0, 100%, 65%)" stroke-width="1.5"></path><path d="M1100.97 38.39L1291.78 105.07" stroke="hsl(0, 100%, 65%)" stroke-width="1.5"></path><path d="M1100.97 38.39L1119.7 241.36" stroke="hsl(0, 100%, 65%)" stroke-width="1.5"></path><path d="M1100.97 38.39L973.31 203.14" stroke="hsl(0, 100%, 65%)" stroke-width="1.5"></path><path d="M1274.36 -98.27L1274.36 -98.27" stroke="hsl(0, 100%, 65%)" stroke-width="1.5"></path><path d="M1274.36 -98.27L1152.42 -90.47" stroke="hsl(0, 100%, 65%)" stroke-width="1.5"></path><path d="M1274.36 -98.27L1291.78 105.07" stroke="hsl(0, 100%, 65%)" stroke-width="1.5"></path><path d="M1274.36 -98.27L1100.97 38.39" stroke="hsl(0, 100%, 65%)" stroke-width="1.5"></path><path d="M1274.36 -98.27L988.14 80.07" stroke="hsl(0, 100%, 65%)" stroke-width="1.5"></path><path d="M1262.4 412.29L1262.4 412.29" stroke="hsl(0, 100%, 65%)" stroke-width="1.5"></path><path d="M1262.4 412.29L1159.81 412.19" stroke="hsl(0, 100%, 65%)" stroke-width="1.5"></path><path d="M1262.4 412.29L1309.09 544.36" stroke="hsl(0, 100%, 65%)" stroke-width="1.5"></path><path d="M1262.4 412.29L1237.98 238.8" stroke="hsl(0, 100%, 65%)" stroke-width="1.5"></path><path d="M-74.46 697.37L-74.46 697.37" stroke="hsl(0, 100%, 65%)" stroke-width="1.5"></path><path d="M-74.46 697.37L92.02 648.34" stroke="hsl(0, 100%, 65%)" stroke-width="1.5"></path><path d="M-74.46 697.37L104.39 543.53" stroke="hsl(0, 100%, 65%)" stroke-width="1.5"></path><path d="M-74.46 697.37L193.72 659.17" stroke="hsl(0, 100%, 65%)" stroke-width="1.5"></path><path d="M-74.46 697.37L236.9 519.72" stroke="hsl(0, 100%, 65%)" stroke-width="1.5"></path><path d="M104.39 543.53L104.39 543.53" stroke="hsl(0, 100%, 65%)" stroke-width="1.5"></path><path d="M104.39 543.53L92.02 648.34" stroke="hsl(0, 100%, 65%)" stroke-width="1.5"></path><path d="M104.39 543.53L236.9 519.72" stroke="hsl(0, 100%, 65%)" stroke-width="1.5"></path><path d="M104.39 543.53L364.02 488.55" stroke="hsl(0, 100%, 65%)" stroke-width="1.5"></path><path d="M92.02 648.34L92.02 648.34" stroke="hsl(0, 100%, 65%)" stroke-width="1.5"></path><path d="M92.02 648.34L236.9 519.72" stroke="hsl(0, 100%, 65%)" stroke-width="1.5"></path><path d="M236.9 519.72L236.9 519.72" stroke="hsl(0, 100%, 65%)" stroke-width="1.5"></path><path d="M236.9 519.72L364.02 488.55" stroke="hsl(0, 100%, 65%)" stroke-width="1.5"></path><path d="M364.02 488.55L364.02 488.55" stroke="hsl(0, 100%, 65%)" stroke-width="1.5"></path><path d="M350.56 688.8L350.56 688.8" stroke="hsl(0, 100%, 65%)" stroke-width="1.5"></path><path d="M350.56 688.8L364.02 488.55" stroke="hsl(0, 100%, 65%)" stroke-width="1.5"></path><path d="M350.56 688.8L236.9 519.72" stroke="hsl(0, 100%, 65%)" stroke-width="1.5"></path><path d="M350.56 688.8L92.02 648.34" stroke="hsl(0, 100%, 65%)" stroke-width="1.5"></path><path d="M350.56 688.8L558.75 506.87" stroke="hsl(0, 100%, 65%)" stroke-width="1.5"></path><path d="M696.13 397.54L696.13 397.54" stroke="hsl(0, 100%, 65%)" stroke-width="1.5"></path><path d="M696.13 397.54L676.55 488.3" stroke="hsl(0, 100%, 65%)" stroke-width="1.5"></path><path d="M676.55 488.3L676.55 488.3" stroke="hsl(0, 100%, 65%)" stroke-width="1.5"></path><path d="M676.55 488.3L831.88 495.43" stroke="hsl(0, 100%, 65%)" stroke-width="1.5"></path><path d="M666.16 708.4L666.16 708.4" stroke="hsl(0, 100%, 65%)" stroke-width="1.5"></path><path d="M666.16 708.4L676.55 488.3" stroke="hsl(0, 100%, 65%)" stroke-width="1.5"></path><path d="M831.88 495.43L831.88 495.43" stroke="hsl(0, 100%, 65%)" stroke-width="1.5"></path><path d="M831.88 495.43L696.13 397.54" stroke="hsl(0, 100%, 65%)" stroke-width="1.5"></path><path d="M831.88 495.43L975.96 685.66" stroke="hsl(0, 100%, 65%)" stroke-width="1.5"></path><path d="M831.88 495.43L666.16 708.4" stroke="hsl(0, 100%, 65%)" stroke-width="1.5"></path><path d="M975.96 685.66L975.96 685.66" stroke="hsl(0, 100%, 65%)" stroke-width="1.5"></path><path d="M975.96 685.66L1092.3 668.95" stroke="hsl(0, 100%, 65%)" stroke-width="1.5"></path><path d="M1152.42 -90.47L1152.42 -90.47" stroke="hsl(0, 100%, 65%)" stroke-width="1.5"></path><path d="M1152.42 -90.47L1291.78 105.07" stroke="hsl(0, 100%, 65%)" stroke-width="1.5"></path><path d="M1119.7 241.36L1119.7 241.36" stroke="hsl(0, 100%, 65%)" stroke-width="1.5"></path><path d="M1119.7 241.36L1237.98 238.8" stroke="hsl(0, 100%, 65%)" stroke-width="1.5"></path><path d="M1119.7 241.36L1159.81 412.19" stroke="hsl(0, 100%, 65%)" stroke-width="1.5"></path><path d="M1159.81 412.19L1159.81 412.19" stroke="hsl(0, 100%, 65%)" stroke-width="1.5"></path><path d="M1159.81 412.19L1237.98 238.8" stroke="hsl(0, 100%, 65%)" stroke-width="1.5"></path><path d="M1159.81 412.19L1309.09 544.36" stroke="hsl(0, 100%, 65%)" stroke-width="1.5"></path><path d="M1092.3 668.95L1092.3 668.95" stroke="hsl(0, 100%, 65%)" stroke-width="1.5"></path><path d="M1092.3 668.95L1245.16 648.4" stroke="hsl(0, 100%, 65%)" stroke-width="1.5"></path><path d="M1092.3 668.95L948.29 510.1" stroke="hsl(0, 100%, 65%)" stroke-width="1.5"></path><path d="M1092.3 668.95L1309.09 544.36" stroke="hsl(0, 100%, 65%)" stroke-width="1.5"></path><path d="M1291.78 105.07L1291.78 105.07" stroke="hsl(0, 100%, 65%)" stroke-width="1.5"></path><path d="M1291.78 105.07L1237.98 238.8" stroke="hsl(0, 100%, 65%)" stroke-width="1.5"></path><path d="M1291.78 105.07L1119.7 241.36" stroke="hsl(0, 100%, 65%)" stroke-width="1.5"></path><path d="M1237.98 238.8L1237.98 238.8" stroke="hsl(0, 100%, 65%)" stroke-width="1.5"></path><path d="M1309.09 544.36L1309.09 544.36" stroke="hsl(0, 100%, 65%)" stroke-width="1.5"></path><path d="M1309.09 544.36L1245.16 648.4" stroke="hsl(0, 100%, 65%)" stroke-width="1.5"></path><path d="M1245.16 648.4L1245.16 648.4" stroke="hsl(0, 100%, 65%)" stroke-width="1.5"></path><circle r="25" cx="-89.04" cy="559.7" fill="url(#SvgjsRadialGradient1023)"></circle><circle r="25" cx="193.72" cy="659.17" fill="url(#SvgjsRadialGradient1023)"></circle><circle r="25" cx="558.75" cy="506.87" fill="url(#SvgjsRadialGradient1023)"></circle><circle r="25" cx="519.04" cy="688.27" fill="url(#SvgjsRadialGradient1023)"></circle><circle r="25" cx="812.9" cy="352.67" fill="url(#SvgjsRadialGradient1023)"></circle><circle r="25" cx="988.14" cy="80.07" fill="url(#SvgjsRadialGradient1023)"></circle><circle r="25" cx="973.31" cy="203.14" fill="url(#SvgjsRadialGradient1023)"></circle><circle r="25" cx="948.29" cy="510.1" fill="url(#SvgjsRadialGradient1023)"></circle><circle r="25" cx="1100.97" cy="38.39" fill="url(#SvgjsRadialGradient1023)"></circle><circle r="25" cx="1274.36" cy="-98.27" fill="url(#SvgjsRadialGradient1023)"></circle><circle r="25" cx="1262.4" cy="412.29" fill="url(#SvgjsRadialGradient1023)"></circle><circle r="5" cx="-74.46" cy="697.37" fill="#ff8080"></circle><circle r="5" cx="104.39" cy="543.53" fill="#ff8080"></circle><circle r="5" cx="92.02" cy="648.34" fill="#ff8080"></circle><circle r="5" cx="236.9" cy="519.72" fill="#ff8080"></circle><circle r="5" cx="364.02" cy="488.55" fill="#ff8080"></circle><circle r="5" cx="350.56" cy="688.8" fill="#ff8080"></circle><circle r="5" cx="696.13" cy="397.54" fill="#ff8080"></circle><circle r="5" cx="676.55" cy="488.3" fill="#ff8080"></circle><circle r="5" cx="666.16" cy="708.4" fill="#ff8080"></circle><circle r="5" cx="831.88" cy="495.43" fill="#ff8080"></circle><circle r="5" cx="975.96" cy="685.66" fill="#ff8080"></circle><circle r="5" cx="1152.42" cy="-90.47" fill="#ff8080"></circle><circle r="5" cx="1119.7" cy="241.36" fill="#ff8080"></circle><circle r="5" cx="1159.81" cy="412.19" fill="#ff8080"></circle><circle r="5" cx="1092.3" cy="668.95" fill="#ff8080"></circle><circle r="5" cx="1291.78" cy="105.07" fill="#ff8080"></circle><circle r="5" cx="1237.98" cy="238.8" fill="#ff8080"></circle><circle r="5" cx="1309.09" cy="544.36" fill="#ff8080"></circle><circle r="5" cx="1245.16" cy="648.4" fill="#ff8080"></circle></g><defs><mask id="SvgjsMask1022"><rect width="1200" height="600" fill="#ffffff"></rect></mask><radialGradient id="SvgjsRadialGradient1023"><stop stop-color="#ffffff" offset="0.1"></stop><stop stop-color="rgba(255, 0, 0, 1)" offset="0.2"></stop><stop stop-color="rgba(255, 0, 0, 0)" offset="1"></stop></radialGradient></defs></svg>